G75*
%MOIN*%
%OFA0B0*%
%FSLAX25Y25*%
%IPPOS*%
%LPD*%
%AMOC8*
5,1,8,0,0,1.08239X$1,22.5*
%
%ADD10C,0.00000*%
%ADD11OC8,0.06902*%
%ADD12C,0.08200*%
%ADD13C,0.06000*%
%ADD14C,0.06800*%
%ADD15R,0.08200X0.08200*%
%ADD16OC8,0.04800*%
D10*
X0001800Y0001800D02*
X0001800Y0173261D01*
X0173501Y0173261D01*
X0173501Y0001800D01*
X0001800Y0001800D01*
D11*
X0040800Y0010800D03*
X0040800Y0020800D03*
X0040800Y0030800D03*
X0050800Y0030800D03*
X0050800Y0020800D03*
X0050800Y0010800D03*
D12*
X0012800Y0008800D03*
X0012800Y0018800D03*
X0012800Y0028800D03*
X0012800Y0038800D03*
X0012800Y0048800D03*
X0012800Y0058800D03*
X0012800Y0068800D03*
X0012800Y0078800D03*
X0012800Y0088800D03*
X0012800Y0098800D03*
X0012800Y0108800D03*
X0012800Y0118800D03*
X0012800Y0128800D03*
X0012800Y0138800D03*
X0012800Y0148800D03*
X0062300Y0165300D03*
X0072300Y0165300D03*
X0082300Y0165300D03*
X0092300Y0165300D03*
X0102300Y0165300D03*
X0112300Y0165300D03*
X0122300Y0165300D03*
X0162800Y0151300D03*
X0162800Y0141300D03*
X0162800Y0131300D03*
X0162800Y0121300D03*
X0162800Y0111300D03*
X0162800Y0101300D03*
X0162800Y0091300D03*
X0162800Y0081300D03*
X0162800Y0071300D03*
X0162800Y0061300D03*
X0162800Y0051300D03*
X0162800Y0041300D03*
X0162800Y0031300D03*
X0162800Y0021300D03*
X0162800Y0011300D03*
D13*
X0122300Y0096800D03*
X0122300Y0115800D03*
D14*
X0102600Y0054700D02*
X0096600Y0054700D01*
X0096600Y0036900D02*
X0102600Y0036900D01*
X0077000Y0036900D02*
X0071000Y0036900D01*
X0071000Y0054700D02*
X0077000Y0054700D01*
D15*
X0052300Y0165300D03*
D16*
X0049800Y0157800D03*
X0062600Y0151400D03*
X0077800Y0140200D03*
X0073000Y0132200D03*
X0073000Y0126600D03*
X0083400Y0116200D03*
X0073000Y0112200D03*
X0061800Y0104200D03*
X0058600Y0091400D03*
X0057800Y0080200D03*
X0057800Y0073800D03*
X0051400Y0069800D03*
X0046600Y0079400D03*
X0046600Y0090600D03*
X0031400Y0084200D03*
X0022600Y0104200D03*
X0023400Y0122600D03*
X0038600Y0127400D03*
X0043400Y0129800D03*
X0056200Y0132200D03*
X0027400Y0140200D03*
X0023400Y0143400D03*
X0076200Y0089800D03*
X0078600Y0094600D03*
X0081800Y0090600D03*
X0085800Y0087400D03*
X0086600Y0094600D03*
X0095400Y0080200D03*
X0102600Y0087400D03*
X0109800Y0088200D03*
X0107400Y0099400D03*
X0109800Y0109000D03*
X0097000Y0113800D03*
X0103400Y0123400D03*
X0117000Y0131400D03*
X0125000Y0142600D03*
X0125800Y0157800D03*
X0147400Y0140200D03*
X0143400Y0130600D03*
X0134600Y0122600D03*
X0157000Y0146600D03*
X0135400Y0088200D03*
X0129000Y0071400D03*
X0145800Y0064200D03*
X0151400Y0064200D03*
X0156200Y0066600D03*
X0135400Y0044200D03*
X0129800Y0049800D03*
X0125800Y0042600D03*
X0130600Y0033800D03*
X0138600Y0033800D03*
X0138600Y0028200D03*
X0157000Y0016200D03*
X0121000Y0053000D03*
X0117800Y0033800D03*
X0113800Y0026600D03*
X0105000Y0025800D03*
X0098600Y0016200D03*
X0084200Y0041000D03*
X0085800Y0054600D03*
X0081800Y0059400D03*
X0089800Y0063400D03*
X0107400Y0074600D03*
X0069800Y0073000D03*
X0050600Y0054600D03*
X0057000Y0049800D03*
X0055400Y0039400D03*
X0061000Y0039400D03*
X0041000Y0045000D03*
X0037000Y0049800D03*
X0034600Y0058600D03*
X0031400Y0062600D03*
X0025800Y0015400D03*
X0030600Y0013000D03*
M02*
