G75*
%MOIN*%
%OFA0B0*%
%FSLAX25Y25*%
%IPPOS*%
%LPD*%
%AMOC8*
5,1,8,0,0,1.08239X$1,22.5*
%
%ADD10C,0.00000*%
%ADD11C,0.00400*%
%ADD12C,0.00600*%
%ADD13C,0.00800*%
%ADD14R,0.00787X0.00787*%
%ADD15C,0.00300*%
%ADD16C,0.01600*%
%ADD17C,0.00500*%
%ADD18C,0.00200*%
D10*
X0001800Y0001800D02*
X0001800Y0173261D01*
X0173501Y0173261D01*
X0173501Y0001800D01*
X0001800Y0001800D01*
D11*
X0057059Y0070000D02*
X0058594Y0070000D01*
X0059361Y0070767D01*
X0060896Y0070767D02*
X0060896Y0072302D01*
X0063198Y0072302D01*
X0063965Y0071535D01*
X0063965Y0070767D01*
X0063198Y0070000D01*
X0061663Y0070000D01*
X0060896Y0070767D01*
X0060896Y0072302D02*
X0062431Y0073837D01*
X0063965Y0074604D01*
X0059361Y0073837D02*
X0058594Y0074604D01*
X0057059Y0074604D01*
X0056292Y0073837D01*
X0056292Y0070767D01*
X0057059Y0070000D01*
X0059996Y0132188D02*
X0059996Y0134490D01*
X0060763Y0135257D01*
X0062298Y0135257D01*
X0063065Y0134490D01*
X0063065Y0132188D01*
X0063065Y0133723D02*
X0064600Y0135257D01*
X0064600Y0136792D02*
X0064600Y0139861D01*
X0064600Y0138327D02*
X0059996Y0138327D01*
X0061531Y0136792D01*
X0059996Y0132188D02*
X0064600Y0132188D01*
X0068496Y0132188D02*
X0068496Y0134490D01*
X0069263Y0135257D01*
X0070798Y0135257D01*
X0071565Y0134490D01*
X0071565Y0132188D01*
X0071565Y0133723D02*
X0073100Y0135257D01*
X0073100Y0136792D02*
X0073100Y0139861D01*
X0073100Y0138327D02*
X0068496Y0138327D01*
X0070031Y0136792D01*
X0068496Y0132188D02*
X0073100Y0132188D01*
X0077496Y0140188D02*
X0077496Y0142490D01*
X0078263Y0143257D01*
X0079798Y0143257D01*
X0080565Y0142490D01*
X0080565Y0140188D01*
X0080565Y0141723D02*
X0082100Y0143257D01*
X0082100Y0144792D02*
X0082100Y0147861D01*
X0082100Y0146327D02*
X0077496Y0146327D01*
X0079031Y0144792D01*
X0079798Y0149396D02*
X0079798Y0151698D01*
X0080565Y0152465D01*
X0081333Y0152465D01*
X0082100Y0151698D01*
X0082100Y0150163D01*
X0081333Y0149396D01*
X0079798Y0149396D01*
X0078263Y0150931D01*
X0077496Y0152465D01*
X0072333Y0144465D02*
X0071565Y0144465D01*
X0070798Y0143698D01*
X0070798Y0142163D01*
X0070031Y0141396D01*
X0069263Y0141396D01*
X0068496Y0142163D01*
X0068496Y0143698D01*
X0069263Y0144465D01*
X0070031Y0144465D01*
X0070798Y0143698D01*
X0070798Y0142163D02*
X0071565Y0141396D01*
X0072333Y0141396D01*
X0073100Y0142163D01*
X0073100Y0143698D01*
X0072333Y0144465D01*
X0077496Y0140188D02*
X0082100Y0140188D01*
X0085996Y0140188D02*
X0085996Y0142490D01*
X0086763Y0143257D01*
X0088298Y0143257D01*
X0089065Y0142490D01*
X0089065Y0140188D01*
X0089065Y0141723D02*
X0090600Y0143257D01*
X0090600Y0144792D02*
X0090600Y0147861D01*
X0090600Y0146327D02*
X0085996Y0146327D01*
X0087531Y0144792D01*
X0088298Y0149396D02*
X0085996Y0149396D01*
X0085996Y0152465D01*
X0087531Y0151698D02*
X0088298Y0152465D01*
X0089833Y0152465D01*
X0090600Y0151698D01*
X0090600Y0150163D01*
X0089833Y0149396D01*
X0088298Y0149396D02*
X0087531Y0150931D01*
X0087531Y0151698D01*
X0096496Y0151698D02*
X0098798Y0149396D01*
X0098798Y0152465D01*
X0101100Y0151698D02*
X0096496Y0151698D01*
X0101100Y0147861D02*
X0101100Y0144792D01*
X0101100Y0143257D02*
X0099565Y0141723D01*
X0099565Y0142490D02*
X0099565Y0140188D01*
X0101100Y0140188D02*
X0096496Y0140188D01*
X0096496Y0142490D01*
X0097263Y0143257D01*
X0098798Y0143257D01*
X0099565Y0142490D01*
X0098031Y0144792D02*
X0096496Y0146327D01*
X0101100Y0146327D01*
X0104996Y0146327D02*
X0109600Y0146327D01*
X0109600Y0147861D02*
X0109600Y0144792D01*
X0109600Y0143257D02*
X0108065Y0141723D01*
X0108065Y0142490D02*
X0108065Y0140188D01*
X0109600Y0140188D02*
X0104996Y0140188D01*
X0104996Y0142490D01*
X0105763Y0143257D01*
X0107298Y0143257D01*
X0108065Y0142490D01*
X0106531Y0144792D02*
X0104996Y0146327D01*
X0105763Y0149396D02*
X0104996Y0150163D01*
X0104996Y0151698D01*
X0105763Y0152465D01*
X0106531Y0152465D01*
X0107298Y0151698D01*
X0108065Y0152465D01*
X0108833Y0152465D01*
X0109600Y0151698D01*
X0109600Y0150163D01*
X0108833Y0149396D01*
X0107298Y0150931D02*
X0107298Y0151698D01*
X0114763Y0144465D02*
X0113996Y0143698D01*
X0113996Y0142163D01*
X0114763Y0141396D01*
X0114763Y0144465D02*
X0115531Y0144465D01*
X0118600Y0141396D01*
X0118600Y0144465D01*
X0122496Y0142931D02*
X0127100Y0142931D01*
X0127100Y0144465D02*
X0127100Y0141396D01*
X0127100Y0139861D02*
X0127100Y0136792D01*
X0127100Y0135257D02*
X0125565Y0133723D01*
X0125565Y0134490D02*
X0125565Y0132188D01*
X0127100Y0132188D02*
X0122496Y0132188D01*
X0122496Y0134490D01*
X0123263Y0135257D01*
X0124798Y0135257D01*
X0125565Y0134490D01*
X0124031Y0136792D02*
X0122496Y0138327D01*
X0127100Y0138327D01*
X0124031Y0141396D02*
X0122496Y0142931D01*
X0118600Y0139861D02*
X0118600Y0136792D01*
X0118600Y0135257D02*
X0117065Y0133723D01*
X0117065Y0134490D02*
X0117065Y0132188D01*
X0118600Y0132188D02*
X0113996Y0132188D01*
X0113996Y0134490D01*
X0114763Y0135257D01*
X0116298Y0135257D01*
X0117065Y0134490D01*
X0115531Y0136792D02*
X0113996Y0138327D01*
X0118600Y0138327D01*
X0136996Y0139827D02*
X0141600Y0139827D01*
X0141600Y0141361D02*
X0141600Y0138292D01*
X0141600Y0136757D02*
X0140065Y0135223D01*
X0140065Y0135990D02*
X0140065Y0133688D01*
X0141600Y0133688D02*
X0136996Y0133688D01*
X0136996Y0135990D01*
X0137763Y0136757D01*
X0139298Y0136757D01*
X0140065Y0135990D01*
X0138531Y0138292D02*
X0136996Y0139827D01*
X0137763Y0142896D02*
X0136996Y0143663D01*
X0136996Y0145198D01*
X0137763Y0145965D01*
X0140833Y0142896D01*
X0141600Y0143663D01*
X0141600Y0145198D01*
X0140833Y0145965D01*
X0137763Y0145965D01*
X0137763Y0142896D02*
X0140833Y0142896D01*
X0144996Y0143663D02*
X0145763Y0142896D01*
X0146531Y0142896D01*
X0147298Y0143663D01*
X0147298Y0145965D01*
X0148833Y0145965D02*
X0145763Y0145965D01*
X0144996Y0145198D01*
X0144996Y0143663D01*
X0145763Y0141361D02*
X0144996Y0140594D01*
X0144996Y0138292D01*
X0149600Y0138292D01*
X0148065Y0138292D02*
X0148065Y0140594D01*
X0147298Y0141361D01*
X0145763Y0141361D01*
X0148065Y0139827D02*
X0149600Y0141361D01*
X0148833Y0142896D02*
X0149600Y0143663D01*
X0149600Y0145198D01*
X0148833Y0145965D01*
X0149600Y0156792D02*
X0144996Y0156792D01*
X0144996Y0159094D01*
X0145763Y0159861D01*
X0147298Y0159861D01*
X0148065Y0159094D01*
X0148065Y0156792D01*
X0148065Y0158327D02*
X0149600Y0159861D01*
X0148833Y0161396D02*
X0148065Y0161396D01*
X0147298Y0162163D01*
X0147298Y0163698D01*
X0148065Y0164465D01*
X0148833Y0164465D01*
X0149600Y0163698D01*
X0149600Y0162163D01*
X0148833Y0161396D01*
X0147298Y0162163D02*
X0146531Y0161396D01*
X0145763Y0161396D01*
X0144996Y0162163D01*
X0144996Y0163698D01*
X0145763Y0164465D01*
X0146531Y0164465D01*
X0147298Y0163698D01*
X0141100Y0161396D02*
X0140333Y0161396D01*
X0137263Y0164465D01*
X0136496Y0164465D01*
X0136496Y0161396D01*
X0137263Y0159861D02*
X0136496Y0159094D01*
X0136496Y0156792D01*
X0141100Y0156792D01*
X0139565Y0156792D02*
X0139565Y0159094D01*
X0138798Y0159861D01*
X0137263Y0159861D01*
X0139565Y0158327D02*
X0141100Y0159861D01*
X0132600Y0117673D02*
X0132600Y0114604D01*
X0132600Y0116139D02*
X0127996Y0116139D01*
X0129531Y0114604D01*
X0128763Y0113069D02*
X0127996Y0112302D01*
X0127996Y0110767D01*
X0128763Y0110000D01*
X0131833Y0110000D01*
X0132600Y0110767D01*
X0132600Y0112302D01*
X0131833Y0113069D01*
X0141763Y0099465D02*
X0142531Y0099465D01*
X0143298Y0098698D01*
X0144065Y0099465D01*
X0144833Y0099465D01*
X0145600Y0098698D01*
X0145600Y0097163D01*
X0144833Y0096396D01*
X0144833Y0094861D02*
X0145600Y0094094D01*
X0145600Y0092559D01*
X0144833Y0091792D01*
X0141763Y0091792D01*
X0140996Y0092559D01*
X0140996Y0094094D01*
X0141763Y0094861D01*
X0141763Y0096396D02*
X0140996Y0097163D01*
X0140996Y0098698D01*
X0141763Y0099465D01*
X0143298Y0098698D02*
X0143298Y0097931D01*
X0139600Y0061173D02*
X0139600Y0058104D01*
X0136531Y0061173D01*
X0135763Y0061173D01*
X0134996Y0060406D01*
X0134996Y0058871D01*
X0135763Y0058104D01*
X0135763Y0056569D02*
X0137298Y0056569D01*
X0138065Y0055802D01*
X0138065Y0053500D01*
X0138065Y0055035D02*
X0139600Y0056569D01*
X0139600Y0053500D02*
X0134996Y0053500D01*
X0134996Y0055802D01*
X0135763Y0056569D01*
X0135763Y0052173D02*
X0134996Y0051406D01*
X0134996Y0049871D01*
X0135763Y0049104D01*
X0135763Y0047569D02*
X0134996Y0046802D01*
X0134996Y0045267D01*
X0135763Y0044500D01*
X0138833Y0044500D01*
X0139600Y0045267D01*
X0139600Y0046802D01*
X0138833Y0047569D01*
X0139600Y0049104D02*
X0136531Y0052173D01*
X0135763Y0052173D01*
X0139600Y0052173D02*
X0139600Y0049104D01*
X0139333Y0043173D02*
X0137798Y0043173D01*
X0137031Y0042406D01*
X0137031Y0041639D01*
X0137798Y0040104D01*
X0135496Y0040104D01*
X0135496Y0043173D01*
X0139333Y0043173D02*
X0140100Y0042406D01*
X0140100Y0040871D01*
X0139333Y0040104D01*
X0140100Y0038569D02*
X0138565Y0037035D01*
X0138565Y0037802D02*
X0138565Y0035500D01*
X0138833Y0034173D02*
X0138065Y0034173D01*
X0137298Y0033406D01*
X0137298Y0031104D01*
X0138833Y0031104D01*
X0139600Y0031871D01*
X0139600Y0033406D01*
X0138833Y0034173D01*
X0140100Y0035500D02*
X0135496Y0035500D01*
X0135496Y0037802D01*
X0136263Y0038569D01*
X0137798Y0038569D01*
X0138565Y0037802D01*
X0134996Y0034173D02*
X0135763Y0032639D01*
X0137298Y0031104D01*
X0137298Y0029569D02*
X0135763Y0029569D01*
X0134996Y0028802D01*
X0134996Y0026500D01*
X0139600Y0026500D01*
X0140100Y0026173D02*
X0140100Y0023104D01*
X0140100Y0024639D02*
X0135496Y0024639D01*
X0137031Y0023104D01*
X0137798Y0021569D02*
X0136263Y0021569D01*
X0135496Y0020802D01*
X0135496Y0018500D01*
X0140100Y0018500D01*
X0138565Y0018500D02*
X0138565Y0020802D01*
X0137798Y0021569D01*
X0138565Y0020035D02*
X0140100Y0021569D01*
X0138065Y0026500D02*
X0138065Y0028802D01*
X0137298Y0029569D01*
X0138065Y0028035D02*
X0139600Y0029569D01*
X0132100Y0033267D02*
X0132100Y0034802D01*
X0131333Y0035569D01*
X0129798Y0037104D02*
X0129798Y0040173D01*
X0132100Y0039406D02*
X0127496Y0039406D01*
X0129798Y0037104D01*
X0128263Y0035569D02*
X0127496Y0034802D01*
X0127496Y0033267D01*
X0128263Y0032500D01*
X0131333Y0032500D01*
X0132100Y0033267D01*
X0051100Y0133688D02*
X0046496Y0133688D01*
X0046496Y0135990D01*
X0047263Y0136757D01*
X0048798Y0136757D01*
X0049565Y0135990D01*
X0049565Y0133688D01*
X0049565Y0135223D02*
X0051100Y0136757D01*
X0051100Y0138292D02*
X0048031Y0141361D01*
X0047263Y0141361D01*
X0046496Y0140594D01*
X0046496Y0139059D01*
X0047263Y0138292D01*
X0042600Y0138292D02*
X0042600Y0141361D01*
X0042600Y0139827D02*
X0037996Y0139827D01*
X0039531Y0138292D01*
X0040298Y0136757D02*
X0038763Y0136757D01*
X0037996Y0135990D01*
X0037996Y0133688D01*
X0042600Y0133688D01*
X0041065Y0133688D02*
X0041065Y0135990D01*
X0040298Y0136757D01*
X0041065Y0135223D02*
X0042600Y0136757D01*
X0041833Y0142896D02*
X0042600Y0143663D01*
X0042600Y0145198D01*
X0041833Y0145965D01*
X0038763Y0145965D01*
X0037996Y0145198D01*
X0037996Y0143663D01*
X0038763Y0142896D01*
X0039531Y0142896D01*
X0040298Y0143663D01*
X0040298Y0145965D01*
X0046496Y0145198D02*
X0046496Y0143663D01*
X0047263Y0142896D01*
X0050333Y0142896D01*
X0047263Y0145965D01*
X0050333Y0145965D01*
X0051100Y0145198D01*
X0051100Y0143663D01*
X0050333Y0142896D01*
X0051100Y0141361D02*
X0051100Y0138292D01*
X0046496Y0145198D02*
X0047263Y0145965D01*
X0046496Y0152188D02*
X0046496Y0154490D01*
X0047263Y0155257D01*
X0048798Y0155257D01*
X0049565Y0154490D01*
X0049565Y0152188D01*
X0049565Y0153723D02*
X0051100Y0155257D01*
X0051100Y0156792D02*
X0048031Y0159861D01*
X0047263Y0159861D01*
X0046496Y0159094D01*
X0046496Y0157559D01*
X0047263Y0156792D01*
X0047263Y0161396D02*
X0046496Y0162163D01*
X0046496Y0163698D01*
X0047263Y0164465D01*
X0048031Y0164465D01*
X0051100Y0161396D01*
X0051100Y0164465D01*
X0051100Y0159861D02*
X0051100Y0156792D01*
X0051100Y0152188D02*
X0046496Y0152188D01*
X0042600Y0152188D02*
X0037996Y0152188D01*
X0037996Y0154490D01*
X0038763Y0155257D01*
X0040298Y0155257D01*
X0041065Y0154490D01*
X0041065Y0152188D01*
X0041065Y0153723D02*
X0042600Y0155257D01*
X0042600Y0156792D02*
X0039531Y0159861D01*
X0038763Y0159861D01*
X0037996Y0159094D01*
X0037996Y0157559D01*
X0038763Y0156792D01*
X0042600Y0156792D02*
X0042600Y0159861D01*
X0042600Y0161396D02*
X0042600Y0164465D01*
X0042600Y0162931D02*
X0037996Y0162931D01*
X0039531Y0161396D01*
X0059996Y0144465D02*
X0059996Y0141396D01*
X0059996Y0144465D02*
X0060763Y0144465D01*
X0063833Y0141396D01*
X0064600Y0141396D01*
X0085996Y0140188D02*
X0090600Y0140188D01*
D12*
X0115800Y0118300D02*
X0115800Y0094300D01*
X0115802Y0094140D01*
X0115808Y0093981D01*
X0115818Y0093822D01*
X0115831Y0093663D01*
X0115849Y0093504D01*
X0115870Y0093346D01*
X0115896Y0093189D01*
X0115925Y0093032D01*
X0115958Y0092876D01*
X0115995Y0092721D01*
X0116035Y0092566D01*
X0116080Y0092413D01*
X0116128Y0092261D01*
X0116180Y0092110D01*
X0116236Y0091961D01*
X0116295Y0091813D01*
X0116358Y0091666D01*
X0116424Y0091521D01*
X0116494Y0091378D01*
X0116568Y0091236D01*
X0116644Y0091096D01*
X0116725Y0090958D01*
X0116808Y0090823D01*
X0116895Y0090689D01*
X0116986Y0090557D01*
X0117079Y0090428D01*
X0117176Y0090301D01*
X0117275Y0090176D01*
X0117378Y0090054D01*
X0117484Y0089935D01*
X0117592Y0089818D01*
X0117704Y0089704D01*
X0117818Y0089592D01*
X0117935Y0089484D01*
X0118054Y0089378D01*
X0118176Y0089275D01*
X0118301Y0089176D01*
X0118428Y0089079D01*
X0118557Y0088986D01*
X0118689Y0088895D01*
X0118823Y0088808D01*
X0118958Y0088725D01*
X0119096Y0088644D01*
X0119236Y0088568D01*
X0119378Y0088494D01*
X0119521Y0088424D01*
X0119666Y0088358D01*
X0119813Y0088295D01*
X0119961Y0088236D01*
X0120110Y0088180D01*
X0120261Y0088128D01*
X0120413Y0088080D01*
X0120566Y0088035D01*
X0120721Y0087995D01*
X0120876Y0087958D01*
X0121032Y0087925D01*
X0121189Y0087896D01*
X0121346Y0087870D01*
X0121504Y0087849D01*
X0121663Y0087831D01*
X0121822Y0087818D01*
X0121981Y0087808D01*
X0122140Y0087802D01*
X0122300Y0087800D01*
X0122460Y0087802D01*
X0122619Y0087808D01*
X0122778Y0087818D01*
X0122937Y0087831D01*
X0123096Y0087849D01*
X0123254Y0087870D01*
X0123411Y0087896D01*
X0123568Y0087925D01*
X0123724Y0087958D01*
X0123879Y0087995D01*
X0124034Y0088035D01*
X0124187Y0088080D01*
X0124339Y0088128D01*
X0124490Y0088180D01*
X0124639Y0088236D01*
X0124787Y0088295D01*
X0124934Y0088358D01*
X0125079Y0088424D01*
X0125222Y0088494D01*
X0125364Y0088568D01*
X0125504Y0088644D01*
X0125642Y0088725D01*
X0125777Y0088808D01*
X0125911Y0088895D01*
X0126043Y0088986D01*
X0126172Y0089079D01*
X0126299Y0089176D01*
X0126424Y0089275D01*
X0126546Y0089378D01*
X0126665Y0089484D01*
X0126782Y0089592D01*
X0126896Y0089704D01*
X0127008Y0089818D01*
X0127116Y0089935D01*
X0127222Y0090054D01*
X0127325Y0090176D01*
X0127424Y0090301D01*
X0127521Y0090428D01*
X0127614Y0090557D01*
X0127705Y0090689D01*
X0127792Y0090823D01*
X0127875Y0090958D01*
X0127956Y0091096D01*
X0128032Y0091236D01*
X0128106Y0091378D01*
X0128176Y0091521D01*
X0128242Y0091666D01*
X0128305Y0091813D01*
X0128364Y0091961D01*
X0128420Y0092110D01*
X0128472Y0092261D01*
X0128520Y0092413D01*
X0128565Y0092566D01*
X0128605Y0092721D01*
X0128642Y0092876D01*
X0128675Y0093032D01*
X0128704Y0093189D01*
X0128730Y0093346D01*
X0128751Y0093504D01*
X0128769Y0093663D01*
X0128782Y0093822D01*
X0128792Y0093981D01*
X0128798Y0094140D01*
X0128800Y0094300D01*
X0128800Y0118300D01*
X0128798Y0118460D01*
X0128792Y0118619D01*
X0128782Y0118778D01*
X0128769Y0118937D01*
X0128751Y0119096D01*
X0128730Y0119254D01*
X0128704Y0119411D01*
X0128675Y0119568D01*
X0128642Y0119724D01*
X0128605Y0119879D01*
X0128565Y0120034D01*
X0128520Y0120187D01*
X0128472Y0120339D01*
X0128420Y0120490D01*
X0128364Y0120639D01*
X0128305Y0120787D01*
X0128242Y0120934D01*
X0128176Y0121079D01*
X0128106Y0121222D01*
X0128032Y0121364D01*
X0127956Y0121504D01*
X0127875Y0121642D01*
X0127792Y0121777D01*
X0127705Y0121911D01*
X0127614Y0122043D01*
X0127521Y0122172D01*
X0127424Y0122299D01*
X0127325Y0122424D01*
X0127222Y0122546D01*
X0127116Y0122665D01*
X0127008Y0122782D01*
X0126896Y0122896D01*
X0126782Y0123008D01*
X0126665Y0123116D01*
X0126546Y0123222D01*
X0126424Y0123325D01*
X0126299Y0123424D01*
X0126172Y0123521D01*
X0126043Y0123614D01*
X0125911Y0123705D01*
X0125777Y0123792D01*
X0125642Y0123875D01*
X0125504Y0123956D01*
X0125364Y0124032D01*
X0125222Y0124106D01*
X0125079Y0124176D01*
X0124934Y0124242D01*
X0124787Y0124305D01*
X0124639Y0124364D01*
X0124490Y0124420D01*
X0124339Y0124472D01*
X0124187Y0124520D01*
X0124034Y0124565D01*
X0123879Y0124605D01*
X0123724Y0124642D01*
X0123568Y0124675D01*
X0123411Y0124704D01*
X0123254Y0124730D01*
X0123096Y0124751D01*
X0122937Y0124769D01*
X0122778Y0124782D01*
X0122619Y0124792D01*
X0122460Y0124798D01*
X0122300Y0124800D01*
X0122140Y0124798D01*
X0121981Y0124792D01*
X0121822Y0124782D01*
X0121663Y0124769D01*
X0121504Y0124751D01*
X0121346Y0124730D01*
X0121189Y0124704D01*
X0121032Y0124675D01*
X0120876Y0124642D01*
X0120721Y0124605D01*
X0120566Y0124565D01*
X0120413Y0124520D01*
X0120261Y0124472D01*
X0120110Y0124420D01*
X0119961Y0124364D01*
X0119813Y0124305D01*
X0119666Y0124242D01*
X0119521Y0124176D01*
X0119378Y0124106D01*
X0119236Y0124032D01*
X0119096Y0123956D01*
X0118958Y0123875D01*
X0118823Y0123792D01*
X0118689Y0123705D01*
X0118557Y0123614D01*
X0118428Y0123521D01*
X0118301Y0123424D01*
X0118176Y0123325D01*
X0118054Y0123222D01*
X0117935Y0123116D01*
X0117818Y0123008D01*
X0117704Y0122896D01*
X0117592Y0122782D01*
X0117484Y0122665D01*
X0117378Y0122546D01*
X0117275Y0122424D01*
X0117176Y0122299D01*
X0117079Y0122172D01*
X0116986Y0122043D01*
X0116895Y0121911D01*
X0116808Y0121777D01*
X0116725Y0121642D01*
X0116644Y0121504D01*
X0116568Y0121364D01*
X0116494Y0121222D01*
X0116424Y0121079D01*
X0116358Y0120934D01*
X0116295Y0120787D01*
X0116236Y0120639D01*
X0116180Y0120490D01*
X0116128Y0120339D01*
X0116080Y0120187D01*
X0116035Y0120034D01*
X0115995Y0119879D01*
X0115958Y0119724D01*
X0115925Y0119568D01*
X0115896Y0119411D01*
X0115870Y0119254D01*
X0115849Y0119096D01*
X0115831Y0118937D01*
X0115818Y0118778D01*
X0115808Y0118619D01*
X0115802Y0118460D01*
X0115800Y0118300D01*
X0122300Y0111300D02*
X0122300Y0108800D01*
X0125300Y0108800D01*
X0125300Y0107300D02*
X0125300Y0105300D01*
X0119300Y0105300D01*
X0119300Y0107300D01*
X0125300Y0107300D01*
X0122300Y0108800D02*
X0119300Y0108800D01*
X0119300Y0103800D02*
X0122300Y0103800D01*
X0122300Y0101300D01*
X0122300Y0103800D02*
X0125300Y0103800D01*
X0105827Y0088288D02*
X0105827Y0086312D01*
X0087300Y0067785D01*
X0067785Y0087300D01*
X0087300Y0106815D01*
X0105827Y0088288D01*
X0101159Y0087300D02*
X0101161Y0087375D01*
X0101167Y0087449D01*
X0101177Y0087523D01*
X0101190Y0087596D01*
X0101208Y0087669D01*
X0101229Y0087740D01*
X0101254Y0087811D01*
X0101283Y0087880D01*
X0101316Y0087947D01*
X0101352Y0088012D01*
X0101391Y0088076D01*
X0101433Y0088137D01*
X0101479Y0088196D01*
X0101528Y0088253D01*
X0101580Y0088306D01*
X0101634Y0088357D01*
X0101691Y0088406D01*
X0101751Y0088450D01*
X0101813Y0088492D01*
X0101877Y0088531D01*
X0101943Y0088566D01*
X0102010Y0088597D01*
X0102080Y0088625D01*
X0102150Y0088649D01*
X0102222Y0088670D01*
X0102295Y0088686D01*
X0102368Y0088699D01*
X0102443Y0088708D01*
X0102517Y0088713D01*
X0102592Y0088714D01*
X0102666Y0088711D01*
X0102741Y0088704D01*
X0102814Y0088693D01*
X0102888Y0088679D01*
X0102960Y0088660D01*
X0103031Y0088638D01*
X0103101Y0088612D01*
X0103170Y0088582D01*
X0103236Y0088549D01*
X0103301Y0088512D01*
X0103364Y0088472D01*
X0103425Y0088428D01*
X0103483Y0088382D01*
X0103539Y0088332D01*
X0103592Y0088280D01*
X0103643Y0088225D01*
X0103690Y0088167D01*
X0103734Y0088107D01*
X0103775Y0088044D01*
X0103813Y0087980D01*
X0103847Y0087914D01*
X0103878Y0087845D01*
X0103905Y0087776D01*
X0103928Y0087705D01*
X0103947Y0087633D01*
X0103963Y0087560D01*
X0103975Y0087486D01*
X0103983Y0087412D01*
X0103987Y0087337D01*
X0103987Y0087263D01*
X0103983Y0087188D01*
X0103975Y0087114D01*
X0103963Y0087040D01*
X0103947Y0086967D01*
X0103928Y0086895D01*
X0103905Y0086824D01*
X0103878Y0086755D01*
X0103847Y0086686D01*
X0103813Y0086620D01*
X0103775Y0086556D01*
X0103734Y0086493D01*
X0103690Y0086433D01*
X0103643Y0086375D01*
X0103592Y0086320D01*
X0103539Y0086268D01*
X0103483Y0086218D01*
X0103425Y0086172D01*
X0103364Y0086128D01*
X0103301Y0086088D01*
X0103236Y0086051D01*
X0103170Y0086018D01*
X0103101Y0085988D01*
X0103031Y0085962D01*
X0102960Y0085940D01*
X0102888Y0085921D01*
X0102814Y0085907D01*
X0102741Y0085896D01*
X0102666Y0085889D01*
X0102592Y0085886D01*
X0102517Y0085887D01*
X0102443Y0085892D01*
X0102368Y0085901D01*
X0102295Y0085914D01*
X0102222Y0085930D01*
X0102150Y0085951D01*
X0102080Y0085975D01*
X0102010Y0086003D01*
X0101943Y0086034D01*
X0101877Y0086069D01*
X0101813Y0086108D01*
X0101751Y0086150D01*
X0101691Y0086194D01*
X0101634Y0086243D01*
X0101580Y0086294D01*
X0101528Y0086347D01*
X0101479Y0086404D01*
X0101433Y0086463D01*
X0101391Y0086524D01*
X0101352Y0086588D01*
X0101316Y0086653D01*
X0101283Y0086720D01*
X0101254Y0086789D01*
X0101229Y0086860D01*
X0101208Y0086931D01*
X0101190Y0087004D01*
X0101177Y0087077D01*
X0101167Y0087151D01*
X0101161Y0087225D01*
X0101159Y0087300D01*
X0095300Y0057800D02*
X0091800Y0057800D01*
X0082300Y0057800D01*
X0078300Y0057800D01*
X0074800Y0049800D02*
X0074800Y0048800D01*
X0073800Y0048800D01*
X0073800Y0042800D01*
X0074800Y0042800D01*
X0074800Y0041800D01*
X0078300Y0033800D02*
X0081800Y0033800D01*
X0091800Y0033800D01*
X0095300Y0033800D01*
X0098800Y0041800D02*
X0098800Y0042800D01*
X0099800Y0042800D01*
X0099800Y0048800D01*
X0098800Y0048800D01*
X0098800Y0049800D01*
X0085800Y0045800D02*
X0085802Y0045863D01*
X0085808Y0045925D01*
X0085818Y0045987D01*
X0085831Y0046049D01*
X0085849Y0046109D01*
X0085870Y0046168D01*
X0085895Y0046226D01*
X0085924Y0046282D01*
X0085956Y0046336D01*
X0085991Y0046388D01*
X0086029Y0046437D01*
X0086071Y0046485D01*
X0086115Y0046529D01*
X0086163Y0046571D01*
X0086212Y0046609D01*
X0086264Y0046644D01*
X0086318Y0046676D01*
X0086374Y0046705D01*
X0086432Y0046730D01*
X0086491Y0046751D01*
X0086551Y0046769D01*
X0086613Y0046782D01*
X0086675Y0046792D01*
X0086737Y0046798D01*
X0086800Y0046800D01*
X0086863Y0046798D01*
X0086925Y0046792D01*
X0086987Y0046782D01*
X0087049Y0046769D01*
X0087109Y0046751D01*
X0087168Y0046730D01*
X0087226Y0046705D01*
X0087282Y0046676D01*
X0087336Y0046644D01*
X0087388Y0046609D01*
X0087437Y0046571D01*
X0087485Y0046529D01*
X0087529Y0046485D01*
X0087571Y0046437D01*
X0087609Y0046388D01*
X0087644Y0046336D01*
X0087676Y0046282D01*
X0087705Y0046226D01*
X0087730Y0046168D01*
X0087751Y0046109D01*
X0087769Y0046049D01*
X0087782Y0045987D01*
X0087792Y0045925D01*
X0087798Y0045863D01*
X0087800Y0045800D01*
X0087798Y0045737D01*
X0087792Y0045675D01*
X0087782Y0045613D01*
X0087769Y0045551D01*
X0087751Y0045491D01*
X0087730Y0045432D01*
X0087705Y0045374D01*
X0087676Y0045318D01*
X0087644Y0045264D01*
X0087609Y0045212D01*
X0087571Y0045163D01*
X0087529Y0045115D01*
X0087485Y0045071D01*
X0087437Y0045029D01*
X0087388Y0044991D01*
X0087336Y0044956D01*
X0087282Y0044924D01*
X0087226Y0044895D01*
X0087168Y0044870D01*
X0087109Y0044849D01*
X0087049Y0044831D01*
X0086987Y0044818D01*
X0086925Y0044808D01*
X0086863Y0044802D01*
X0086800Y0044800D01*
X0086737Y0044802D01*
X0086675Y0044808D01*
X0086613Y0044818D01*
X0086551Y0044831D01*
X0086491Y0044849D01*
X0086432Y0044870D01*
X0086374Y0044895D01*
X0086318Y0044924D01*
X0086264Y0044956D01*
X0086212Y0044991D01*
X0086163Y0045029D01*
X0086115Y0045071D01*
X0086071Y0045115D01*
X0086029Y0045163D01*
X0085991Y0045212D01*
X0085956Y0045264D01*
X0085924Y0045318D01*
X0085895Y0045374D01*
X0085870Y0045432D01*
X0085849Y0045491D01*
X0085831Y0045551D01*
X0085818Y0045613D01*
X0085808Y0045675D01*
X0085802Y0045737D01*
X0085800Y0045800D01*
X0079800Y0045800D02*
X0079802Y0045972D01*
X0079808Y0046143D01*
X0079819Y0046315D01*
X0079834Y0046486D01*
X0079853Y0046657D01*
X0079876Y0046827D01*
X0079903Y0046997D01*
X0079935Y0047166D01*
X0079970Y0047334D01*
X0080010Y0047501D01*
X0080054Y0047667D01*
X0080101Y0047832D01*
X0080153Y0047996D01*
X0080209Y0048158D01*
X0080269Y0048319D01*
X0080333Y0048479D01*
X0080401Y0048637D01*
X0080472Y0048793D01*
X0080547Y0048947D01*
X0080627Y0049100D01*
X0080709Y0049250D01*
X0080796Y0049399D01*
X0080886Y0049545D01*
X0080980Y0049689D01*
X0081077Y0049831D01*
X0081178Y0049970D01*
X0081282Y0050107D01*
X0081389Y0050241D01*
X0081500Y0050372D01*
X0081613Y0050501D01*
X0081730Y0050627D01*
X0081850Y0050750D01*
X0081973Y0050870D01*
X0082099Y0050987D01*
X0082228Y0051100D01*
X0082359Y0051211D01*
X0082493Y0051318D01*
X0082630Y0051422D01*
X0082769Y0051523D01*
X0082911Y0051620D01*
X0083055Y0051714D01*
X0083201Y0051804D01*
X0083350Y0051891D01*
X0083500Y0051973D01*
X0083653Y0052053D01*
X0083807Y0052128D01*
X0083963Y0052199D01*
X0084121Y0052267D01*
X0084281Y0052331D01*
X0084442Y0052391D01*
X0084604Y0052447D01*
X0084768Y0052499D01*
X0084933Y0052546D01*
X0085099Y0052590D01*
X0085266Y0052630D01*
X0085434Y0052665D01*
X0085603Y0052697D01*
X0085773Y0052724D01*
X0085943Y0052747D01*
X0086114Y0052766D01*
X0086285Y0052781D01*
X0086457Y0052792D01*
X0086628Y0052798D01*
X0086800Y0052800D01*
X0086972Y0052798D01*
X0087143Y0052792D01*
X0087315Y0052781D01*
X0087486Y0052766D01*
X0087657Y0052747D01*
X0087827Y0052724D01*
X0087997Y0052697D01*
X0088166Y0052665D01*
X0088334Y0052630D01*
X0088501Y0052590D01*
X0088667Y0052546D01*
X0088832Y0052499D01*
X0088996Y0052447D01*
X0089158Y0052391D01*
X0089319Y0052331D01*
X0089479Y0052267D01*
X0089637Y0052199D01*
X0089793Y0052128D01*
X0089947Y0052053D01*
X0090100Y0051973D01*
X0090250Y0051891D01*
X0090399Y0051804D01*
X0090545Y0051714D01*
X0090689Y0051620D01*
X0090831Y0051523D01*
X0090970Y0051422D01*
X0091107Y0051318D01*
X0091241Y0051211D01*
X0091372Y0051100D01*
X0091501Y0050987D01*
X0091627Y0050870D01*
X0091750Y0050750D01*
X0091870Y0050627D01*
X0091987Y0050501D01*
X0092100Y0050372D01*
X0092211Y0050241D01*
X0092318Y0050107D01*
X0092422Y0049970D01*
X0092523Y0049831D01*
X0092620Y0049689D01*
X0092714Y0049545D01*
X0092804Y0049399D01*
X0092891Y0049250D01*
X0092973Y0049100D01*
X0093053Y0048947D01*
X0093128Y0048793D01*
X0093199Y0048637D01*
X0093267Y0048479D01*
X0093331Y0048319D01*
X0093391Y0048158D01*
X0093447Y0047996D01*
X0093499Y0047832D01*
X0093546Y0047667D01*
X0093590Y0047501D01*
X0093630Y0047334D01*
X0093665Y0047166D01*
X0093697Y0046997D01*
X0093724Y0046827D01*
X0093747Y0046657D01*
X0093766Y0046486D01*
X0093781Y0046315D01*
X0093792Y0046143D01*
X0093798Y0045972D01*
X0093800Y0045800D01*
X0093798Y0045628D01*
X0093792Y0045457D01*
X0093781Y0045285D01*
X0093766Y0045114D01*
X0093747Y0044943D01*
X0093724Y0044773D01*
X0093697Y0044603D01*
X0093665Y0044434D01*
X0093630Y0044266D01*
X0093590Y0044099D01*
X0093546Y0043933D01*
X0093499Y0043768D01*
X0093447Y0043604D01*
X0093391Y0043442D01*
X0093331Y0043281D01*
X0093267Y0043121D01*
X0093199Y0042963D01*
X0093128Y0042807D01*
X0093053Y0042653D01*
X0092973Y0042500D01*
X0092891Y0042350D01*
X0092804Y0042201D01*
X0092714Y0042055D01*
X0092620Y0041911D01*
X0092523Y0041769D01*
X0092422Y0041630D01*
X0092318Y0041493D01*
X0092211Y0041359D01*
X0092100Y0041228D01*
X0091987Y0041099D01*
X0091870Y0040973D01*
X0091750Y0040850D01*
X0091627Y0040730D01*
X0091501Y0040613D01*
X0091372Y0040500D01*
X0091241Y0040389D01*
X0091107Y0040282D01*
X0090970Y0040178D01*
X0090831Y0040077D01*
X0090689Y0039980D01*
X0090545Y0039886D01*
X0090399Y0039796D01*
X0090250Y0039709D01*
X0090100Y0039627D01*
X0089947Y0039547D01*
X0089793Y0039472D01*
X0089637Y0039401D01*
X0089479Y0039333D01*
X0089319Y0039269D01*
X0089158Y0039209D01*
X0088996Y0039153D01*
X0088832Y0039101D01*
X0088667Y0039054D01*
X0088501Y0039010D01*
X0088334Y0038970D01*
X0088166Y0038935D01*
X0087997Y0038903D01*
X0087827Y0038876D01*
X0087657Y0038853D01*
X0087486Y0038834D01*
X0087315Y0038819D01*
X0087143Y0038808D01*
X0086972Y0038802D01*
X0086800Y0038800D01*
X0086628Y0038802D01*
X0086457Y0038808D01*
X0086285Y0038819D01*
X0086114Y0038834D01*
X0085943Y0038853D01*
X0085773Y0038876D01*
X0085603Y0038903D01*
X0085434Y0038935D01*
X0085266Y0038970D01*
X0085099Y0039010D01*
X0084933Y0039054D01*
X0084768Y0039101D01*
X0084604Y0039153D01*
X0084442Y0039209D01*
X0084281Y0039269D01*
X0084121Y0039333D01*
X0083963Y0039401D01*
X0083807Y0039472D01*
X0083653Y0039547D01*
X0083500Y0039627D01*
X0083350Y0039709D01*
X0083201Y0039796D01*
X0083055Y0039886D01*
X0082911Y0039980D01*
X0082769Y0040077D01*
X0082630Y0040178D01*
X0082493Y0040282D01*
X0082359Y0040389D01*
X0082228Y0040500D01*
X0082099Y0040613D01*
X0081973Y0040730D01*
X0081850Y0040850D01*
X0081730Y0040973D01*
X0081613Y0041099D01*
X0081500Y0041228D01*
X0081389Y0041359D01*
X0081282Y0041493D01*
X0081178Y0041630D01*
X0081077Y0041769D01*
X0080980Y0041911D01*
X0080886Y0042055D01*
X0080796Y0042201D01*
X0080709Y0042350D01*
X0080627Y0042500D01*
X0080547Y0042653D01*
X0080472Y0042807D01*
X0080401Y0042963D01*
X0080333Y0043121D01*
X0080269Y0043281D01*
X0080209Y0043442D01*
X0080153Y0043604D01*
X0080101Y0043768D01*
X0080054Y0043933D01*
X0080010Y0044099D01*
X0079970Y0044266D01*
X0079935Y0044434D01*
X0079903Y0044603D01*
X0079876Y0044773D01*
X0079853Y0044943D01*
X0079834Y0045114D01*
X0079819Y0045285D01*
X0079808Y0045457D01*
X0079802Y0045628D01*
X0079800Y0045800D01*
X0055800Y0033300D02*
X0055800Y0028300D01*
X0053300Y0025800D01*
X0038300Y0025800D01*
X0035800Y0028300D01*
X0035800Y0033300D01*
X0038300Y0035800D01*
X0053300Y0035800D01*
X0055800Y0033300D01*
X0053300Y0025800D02*
X0055800Y0023300D01*
X0055800Y0018300D01*
X0053300Y0015800D01*
X0038300Y0015800D01*
X0035800Y0018300D01*
X0035800Y0023300D01*
X0038300Y0025800D01*
X0038300Y0015800D02*
X0035800Y0013300D01*
X0035800Y0008300D01*
X0038300Y0005800D01*
X0053300Y0005800D01*
X0055800Y0008300D01*
X0055800Y0013300D01*
X0053300Y0015800D01*
D13*
X0017800Y0016300D02*
X0015300Y0013800D01*
X0017800Y0011300D01*
X0017800Y0006300D01*
X0015300Y0003800D01*
X0010300Y0003800D01*
X0007800Y0006300D01*
X0007800Y0011300D01*
X0010300Y0013800D01*
X0007800Y0016300D01*
X0007800Y0021300D01*
X0010300Y0023800D01*
X0007800Y0026300D01*
X0007800Y0031300D01*
X0010300Y0033800D01*
X0007800Y0036300D01*
X0007800Y0041300D01*
X0010300Y0043800D01*
X0007800Y0046300D01*
X0007800Y0051300D01*
X0010300Y0053800D01*
X0007800Y0056300D01*
X0007800Y0061300D01*
X0010300Y0063800D01*
X0007800Y0066300D01*
X0007800Y0071300D01*
X0010300Y0073800D01*
X0007800Y0076300D01*
X0007800Y0081300D01*
X0010300Y0083800D01*
X0007800Y0086300D01*
X0007800Y0091300D01*
X0010300Y0093800D01*
X0007800Y0096300D01*
X0007800Y0101300D01*
X0010300Y0103800D01*
X0007800Y0106300D01*
X0007800Y0111300D01*
X0010300Y0113800D01*
X0007800Y0116300D01*
X0007800Y0121300D01*
X0010300Y0123800D01*
X0007800Y0126300D01*
X0007800Y0131300D01*
X0010300Y0133800D01*
X0007800Y0136300D01*
X0007800Y0141300D01*
X0010300Y0143800D01*
X0007800Y0146300D01*
X0007800Y0151300D01*
X0010300Y0153800D01*
X0015300Y0153800D01*
X0017800Y0151300D01*
X0017800Y0146300D01*
X0015300Y0143800D01*
X0017800Y0141300D01*
X0017800Y0136300D01*
X0015300Y0133800D01*
X0017800Y0131300D01*
X0017800Y0126300D01*
X0015300Y0123800D01*
X0017800Y0121300D01*
X0017800Y0116300D01*
X0015300Y0113800D01*
X0017800Y0111300D01*
X0017800Y0106300D01*
X0015300Y0103800D01*
X0017800Y0101300D01*
X0017800Y0096300D01*
X0015300Y0093800D01*
X0017800Y0091300D01*
X0017800Y0086300D01*
X0015300Y0083800D01*
X0017800Y0081300D01*
X0017800Y0076300D01*
X0015300Y0073800D01*
X0017800Y0071300D01*
X0017800Y0066300D01*
X0015300Y0063800D01*
X0017800Y0061300D01*
X0017800Y0056300D01*
X0015300Y0053800D01*
X0017800Y0051300D01*
X0017800Y0046300D01*
X0015300Y0043800D01*
X0017800Y0041300D01*
X0017800Y0036300D01*
X0015300Y0033800D01*
X0017800Y0031300D01*
X0017800Y0026300D01*
X0015300Y0023800D01*
X0017800Y0021300D01*
X0017800Y0016300D01*
X0049800Y0160300D02*
X0054800Y0160300D01*
X0057300Y0162800D01*
X0059800Y0160300D01*
X0064800Y0160300D01*
X0067300Y0162800D01*
X0069800Y0160300D01*
X0074800Y0160300D01*
X0077300Y0162800D01*
X0079800Y0160300D01*
X0084800Y0160300D01*
X0087300Y0162800D01*
X0089800Y0160300D01*
X0094800Y0160300D01*
X0097300Y0162800D01*
X0099800Y0160300D01*
X0104800Y0160300D01*
X0107300Y0162800D01*
X0109800Y0160300D01*
X0114800Y0160300D01*
X0117300Y0162800D01*
X0119800Y0160300D01*
X0124800Y0160300D01*
X0127300Y0162800D01*
X0127300Y0167800D01*
X0124800Y0170300D01*
X0119800Y0170300D01*
X0117300Y0167800D01*
X0114800Y0170300D01*
X0109800Y0170300D01*
X0107300Y0167800D01*
X0104800Y0170300D01*
X0099800Y0170300D01*
X0097300Y0167800D01*
X0094800Y0170300D01*
X0089800Y0170300D01*
X0087300Y0167800D01*
X0084800Y0170300D01*
X0079800Y0170300D01*
X0077300Y0167800D01*
X0074800Y0170300D01*
X0069800Y0170300D01*
X0067300Y0167800D01*
X0064800Y0170300D01*
X0059800Y0170300D01*
X0057300Y0167800D01*
X0054800Y0170300D01*
X0049800Y0170300D01*
X0047300Y0167800D01*
X0047300Y0162800D01*
X0049800Y0160300D01*
X0157800Y0153800D02*
X0157800Y0148800D01*
X0160300Y0146300D01*
X0157800Y0143800D01*
X0157800Y0138800D01*
X0160300Y0136300D01*
X0157800Y0133800D01*
X0157800Y0128800D01*
X0160300Y0126300D01*
X0157800Y0123800D01*
X0157800Y0118800D01*
X0160300Y0116300D01*
X0157800Y0113800D01*
X0157800Y0108800D01*
X0160300Y0106300D01*
X0157800Y0103800D01*
X0157800Y0098800D01*
X0160300Y0096300D01*
X0157800Y0093800D01*
X0157800Y0088800D01*
X0160300Y0086300D01*
X0157800Y0083800D01*
X0157800Y0078800D01*
X0160300Y0076300D01*
X0157800Y0073800D01*
X0157800Y0068800D01*
X0160300Y0066300D01*
X0157800Y0063800D01*
X0157800Y0058800D01*
X0160300Y0056300D01*
X0157800Y0053800D01*
X0157800Y0048800D01*
X0160300Y0046300D01*
X0157800Y0043800D01*
X0157800Y0038800D01*
X0160300Y0036300D01*
X0157800Y0033800D01*
X0157800Y0028800D01*
X0160300Y0026300D01*
X0157800Y0023800D01*
X0157800Y0018800D01*
X0160300Y0016300D01*
X0157800Y0013800D01*
X0157800Y0008800D01*
X0160300Y0006300D01*
X0165300Y0006300D01*
X0167800Y0008800D01*
X0167800Y0013800D01*
X0165300Y0016300D01*
X0167800Y0018800D01*
X0167800Y0023800D01*
X0165300Y0026300D01*
X0167800Y0028800D01*
X0167800Y0033800D01*
X0165300Y0036300D01*
X0167800Y0038800D01*
X0167800Y0043800D01*
X0165300Y0046300D01*
X0167800Y0048800D01*
X0167800Y0053800D01*
X0165300Y0056300D01*
X0167800Y0058800D01*
X0167800Y0063800D01*
X0165300Y0066300D01*
X0167800Y0068800D01*
X0167800Y0073800D01*
X0165300Y0076300D01*
X0167800Y0078800D01*
X0167800Y0083800D01*
X0165300Y0086300D01*
X0167800Y0088800D01*
X0167800Y0093800D01*
X0165300Y0096300D01*
X0167800Y0098800D01*
X0167800Y0103800D01*
X0165300Y0106300D01*
X0167800Y0108800D01*
X0167800Y0113800D01*
X0165300Y0116300D01*
X0167800Y0118800D01*
X0167800Y0123800D01*
X0165300Y0126300D01*
X0167800Y0128800D01*
X0167800Y0133800D01*
X0165300Y0136300D01*
X0167800Y0138800D01*
X0167800Y0143800D01*
X0165300Y0146300D01*
X0167800Y0148800D01*
X0167800Y0153800D01*
X0165300Y0156300D01*
X0160300Y0156300D01*
X0157800Y0153800D01*
D14*
X0095194Y0023300D03*
X0146906Y0013300D03*
D15*
X0105162Y0072564D02*
X0103109Y0074617D01*
X0104478Y0074617D01*
X0104478Y0075985D01*
X0106530Y0073932D01*
X0106903Y0074990D02*
X0105535Y0076358D01*
X0105535Y0077042D01*
X0106219Y0077726D01*
X0106903Y0077726D01*
X0107276Y0078784D02*
X0108987Y0077073D01*
X0109671Y0077073D01*
X0110355Y0077757D01*
X0110355Y0078441D01*
X0108645Y0080152D01*
X0108272Y0076358D02*
X0108271Y0075674D01*
X0107587Y0074990D01*
X0106903Y0074990D01*
D16*
X0113800Y0094300D02*
X0113800Y0118300D01*
X0113803Y0118507D01*
X0113810Y0118714D01*
X0113823Y0118920D01*
X0113840Y0119127D01*
X0113863Y0119332D01*
X0113891Y0119538D01*
X0113923Y0119742D01*
X0113961Y0119946D01*
X0114003Y0120148D01*
X0114051Y0120350D01*
X0114103Y0120550D01*
X0114160Y0120749D01*
X0114222Y0120946D01*
X0114289Y0121142D01*
X0114361Y0121336D01*
X0114437Y0121529D01*
X0114518Y0121719D01*
X0114604Y0121908D01*
X0114694Y0122094D01*
X0114788Y0122278D01*
X0114888Y0122460D01*
X0114991Y0122639D01*
X0115099Y0122816D01*
X0115211Y0122990D01*
X0115327Y0123161D01*
X0115448Y0123330D01*
X0115572Y0123495D01*
X0115701Y0123657D01*
X0115833Y0123816D01*
X0115969Y0123972D01*
X0116109Y0124125D01*
X0116253Y0124274D01*
X0116400Y0124419D01*
X0116551Y0124561D01*
X0116705Y0124699D01*
X0116863Y0124834D01*
X0117023Y0124964D01*
X0117187Y0125090D01*
X0117354Y0125213D01*
X0117524Y0125331D01*
X0117697Y0125446D01*
X0117872Y0125556D01*
X0118050Y0125661D01*
X0118231Y0125763D01*
X0118413Y0125859D01*
X0118599Y0125952D01*
X0118786Y0126040D01*
X0118976Y0126123D01*
X0119167Y0126202D01*
X0119360Y0126276D01*
X0119556Y0126345D01*
X0119752Y0126409D01*
X0119950Y0126469D01*
X0120150Y0126524D01*
X0120351Y0126574D01*
X0120553Y0126619D01*
X0120756Y0126659D01*
X0120960Y0126694D01*
X0121165Y0126724D01*
X0121370Y0126749D01*
X0121576Y0126769D01*
X0121783Y0126784D01*
X0121990Y0126794D01*
X0122197Y0126799D01*
X0122403Y0126799D01*
X0122610Y0126794D01*
X0122817Y0126784D01*
X0123024Y0126769D01*
X0123230Y0126749D01*
X0123435Y0126724D01*
X0123640Y0126694D01*
X0123844Y0126659D01*
X0124047Y0126619D01*
X0124249Y0126574D01*
X0124450Y0126524D01*
X0124650Y0126469D01*
X0124848Y0126409D01*
X0125044Y0126345D01*
X0125240Y0126276D01*
X0125433Y0126202D01*
X0125624Y0126123D01*
X0125814Y0126040D01*
X0126001Y0125952D01*
X0126187Y0125859D01*
X0126369Y0125763D01*
X0126550Y0125661D01*
X0126728Y0125556D01*
X0126903Y0125446D01*
X0127076Y0125331D01*
X0127246Y0125213D01*
X0127413Y0125090D01*
X0127577Y0124964D01*
X0127737Y0124834D01*
X0127895Y0124699D01*
X0128049Y0124561D01*
X0128200Y0124419D01*
X0128347Y0124274D01*
X0128491Y0124125D01*
X0128631Y0123972D01*
X0128767Y0123816D01*
X0128899Y0123657D01*
X0129028Y0123495D01*
X0129152Y0123330D01*
X0129273Y0123161D01*
X0129389Y0122990D01*
X0129501Y0122816D01*
X0129609Y0122639D01*
X0129712Y0122460D01*
X0129812Y0122278D01*
X0129906Y0122094D01*
X0129996Y0121908D01*
X0130082Y0121719D01*
X0130163Y0121529D01*
X0130239Y0121336D01*
X0130311Y0121142D01*
X0130378Y0120946D01*
X0130440Y0120749D01*
X0130497Y0120550D01*
X0130549Y0120350D01*
X0130597Y0120148D01*
X0130639Y0119946D01*
X0130677Y0119742D01*
X0130709Y0119538D01*
X0130737Y0119332D01*
X0130760Y0119127D01*
X0130777Y0118920D01*
X0130790Y0118714D01*
X0130797Y0118507D01*
X0130800Y0118300D01*
X0130800Y0094300D01*
X0130797Y0094093D01*
X0130790Y0093886D01*
X0130777Y0093680D01*
X0130760Y0093473D01*
X0130737Y0093268D01*
X0130709Y0093062D01*
X0130677Y0092858D01*
X0130639Y0092654D01*
X0130597Y0092452D01*
X0130549Y0092250D01*
X0130497Y0092050D01*
X0130440Y0091851D01*
X0130378Y0091654D01*
X0130311Y0091458D01*
X0130239Y0091264D01*
X0130163Y0091071D01*
X0130082Y0090881D01*
X0129996Y0090692D01*
X0129906Y0090506D01*
X0129812Y0090322D01*
X0129712Y0090140D01*
X0129609Y0089961D01*
X0129501Y0089784D01*
X0129389Y0089610D01*
X0129273Y0089439D01*
X0129152Y0089270D01*
X0129028Y0089105D01*
X0128899Y0088943D01*
X0128767Y0088784D01*
X0128631Y0088628D01*
X0128491Y0088475D01*
X0128347Y0088326D01*
X0128200Y0088181D01*
X0128049Y0088039D01*
X0127895Y0087901D01*
X0127737Y0087766D01*
X0127577Y0087636D01*
X0127413Y0087510D01*
X0127246Y0087387D01*
X0127076Y0087269D01*
X0126903Y0087154D01*
X0126728Y0087044D01*
X0126550Y0086939D01*
X0126369Y0086837D01*
X0126187Y0086741D01*
X0126001Y0086648D01*
X0125814Y0086560D01*
X0125624Y0086477D01*
X0125433Y0086398D01*
X0125240Y0086324D01*
X0125044Y0086255D01*
X0124848Y0086191D01*
X0124650Y0086131D01*
X0124450Y0086076D01*
X0124249Y0086026D01*
X0124047Y0085981D01*
X0123844Y0085941D01*
X0123640Y0085906D01*
X0123435Y0085876D01*
X0123230Y0085851D01*
X0123024Y0085831D01*
X0122817Y0085816D01*
X0122610Y0085806D01*
X0122403Y0085801D01*
X0122197Y0085801D01*
X0121990Y0085806D01*
X0121783Y0085816D01*
X0121576Y0085831D01*
X0121370Y0085851D01*
X0121165Y0085876D01*
X0120960Y0085906D01*
X0120756Y0085941D01*
X0120553Y0085981D01*
X0120351Y0086026D01*
X0120150Y0086076D01*
X0119950Y0086131D01*
X0119752Y0086191D01*
X0119556Y0086255D01*
X0119360Y0086324D01*
X0119167Y0086398D01*
X0118976Y0086477D01*
X0118786Y0086560D01*
X0118599Y0086648D01*
X0118413Y0086741D01*
X0118231Y0086837D01*
X0118050Y0086939D01*
X0117872Y0087044D01*
X0117697Y0087154D01*
X0117524Y0087269D01*
X0117354Y0087387D01*
X0117187Y0087510D01*
X0117023Y0087636D01*
X0116863Y0087766D01*
X0116705Y0087901D01*
X0116551Y0088039D01*
X0116400Y0088181D01*
X0116253Y0088326D01*
X0116109Y0088475D01*
X0115969Y0088628D01*
X0115833Y0088784D01*
X0115701Y0088943D01*
X0115572Y0089105D01*
X0115448Y0089270D01*
X0115327Y0089439D01*
X0115211Y0089610D01*
X0115099Y0089784D01*
X0114991Y0089961D01*
X0114888Y0090140D01*
X0114788Y0090322D01*
X0114694Y0090506D01*
X0114604Y0090692D01*
X0114518Y0090881D01*
X0114437Y0091071D01*
X0114361Y0091264D01*
X0114289Y0091458D01*
X0114222Y0091654D01*
X0114160Y0091851D01*
X0114103Y0092050D01*
X0114051Y0092250D01*
X0114003Y0092452D01*
X0113961Y0092654D01*
X0113923Y0092858D01*
X0113891Y0093062D01*
X0113863Y0093268D01*
X0113840Y0093473D01*
X0113823Y0093680D01*
X0113810Y0093886D01*
X0113803Y0094093D01*
X0113800Y0094300D01*
D17*
X0111550Y0094156D02*
X0111550Y0091154D01*
X0111550Y0092655D02*
X0107046Y0092655D01*
X0108547Y0091154D01*
X0107797Y0089553D02*
X0110799Y0089553D01*
X0111550Y0088802D01*
X0111550Y0087301D01*
X0110799Y0086550D01*
X0107797Y0086550D01*
X0107046Y0087301D01*
X0107046Y0088802D01*
X0107797Y0089553D01*
X0110049Y0088051D02*
X0111550Y0089553D01*
X0095947Y0031054D02*
X0095947Y0026550D01*
X0094446Y0026550D02*
X0097449Y0026550D01*
X0094446Y0029553D02*
X0095947Y0031054D01*
X0092845Y0030303D02*
X0092094Y0031054D01*
X0090593Y0031054D01*
X0089842Y0030303D01*
X0089842Y0029553D01*
X0090593Y0028802D01*
X0092094Y0028802D01*
X0092845Y0028051D01*
X0092845Y0027301D01*
X0092094Y0026550D01*
X0090593Y0026550D01*
X0089842Y0027301D01*
X0054106Y0172750D02*
X0052605Y0172750D01*
X0051854Y0173501D01*
X0053355Y0175002D02*
X0054106Y0175002D01*
X0054856Y0174251D01*
X0054856Y0173501D01*
X0054106Y0172750D01*
X0054106Y0175002D02*
X0054856Y0175753D01*
X0054856Y0176503D01*
X0054106Y0177254D01*
X0052605Y0177254D01*
X0051854Y0176503D01*
X0050253Y0177254D02*
X0048751Y0177254D01*
X0049502Y0177254D02*
X0049502Y0173501D01*
X0048751Y0172750D01*
X0048001Y0172750D01*
X0047250Y0173501D01*
D18*
X0082300Y0057800D02*
X0082300Y0056800D01*
X0091800Y0056800D01*
X0091800Y0057800D01*
X0091800Y0034800D02*
X0081800Y0034800D01*
X0081800Y0033800D01*
X0091800Y0033800D02*
X0091800Y0034800D01*
M02*
