G75*
%MOIN*%
%OFA0B0*%
%FSLAX25Y25*%
%IPPOS*%
%LPD*%
%AMOC8*
5,1,8,0,0,1.08239X$1,22.5*
%
%ADD10C,0.00000*%
%ADD11R,0.05906X0.05118*%
%ADD12R,0.05118X0.05906*%
%ADD13R,0.04724X0.04724*%
%ADD14R,0.05000X0.02200*%
%ADD15R,0.02200X0.05000*%
%ADD16R,0.05118X0.06299*%
%ADD17R,0.06299X0.05118*%
D10*
X0001800Y0001800D02*
X0001800Y0173261D01*
X0173501Y0173261D01*
X0173501Y0001800D01*
X0001800Y0001800D01*
D11*
X0127800Y0020954D03*
X0127800Y0027646D03*
X0136800Y0093954D03*
X0136800Y0100646D03*
X0136800Y0109954D03*
X0136800Y0116646D03*
D12*
X0144454Y0048300D03*
X0151146Y0048300D03*
X0065146Y0065800D03*
X0058454Y0065800D03*
D13*
X0090666Y0023300D03*
X0098934Y0023300D03*
X0143166Y0013300D03*
X0151434Y0013300D03*
D14*
G36*
X0080600Y0066566D02*
X0084134Y0070100D01*
X0085690Y0068544D01*
X0082156Y0065010D01*
X0080600Y0066566D01*
G37*
G36*
X0078373Y0068793D02*
X0081907Y0072327D01*
X0083463Y0070771D01*
X0079929Y0067237D01*
X0078373Y0068793D01*
G37*
G36*
X0076146Y0071020D02*
X0079680Y0074554D01*
X0081236Y0072998D01*
X0077702Y0069464D01*
X0076146Y0071020D01*
G37*
G36*
X0073918Y0073247D02*
X0077452Y0076781D01*
X0079008Y0075225D01*
X0075474Y0071691D01*
X0073918Y0073247D01*
G37*
G36*
X0071691Y0075474D02*
X0075225Y0079008D01*
X0076781Y0077452D01*
X0073247Y0073918D01*
X0071691Y0075474D01*
G37*
G36*
X0069464Y0077702D02*
X0072998Y0081236D01*
X0074554Y0079680D01*
X0071020Y0076146D01*
X0069464Y0077702D01*
G37*
G36*
X0067237Y0079929D02*
X0070771Y0083463D01*
X0072327Y0081907D01*
X0068793Y0078373D01*
X0067237Y0079929D01*
G37*
G36*
X0065010Y0082156D02*
X0068544Y0085690D01*
X0070100Y0084134D01*
X0066566Y0080600D01*
X0065010Y0082156D01*
G37*
G36*
X0088910Y0106056D02*
X0092444Y0109590D01*
X0094000Y0108034D01*
X0090466Y0104500D01*
X0088910Y0106056D01*
G37*
G36*
X0091137Y0103829D02*
X0094671Y0107363D01*
X0096227Y0105807D01*
X0092693Y0102273D01*
X0091137Y0103829D01*
G37*
G36*
X0093364Y0101602D02*
X0096898Y0105136D01*
X0098454Y0103580D01*
X0094920Y0100046D01*
X0093364Y0101602D01*
G37*
G36*
X0095592Y0099375D02*
X0099126Y0102909D01*
X0100682Y0101353D01*
X0097148Y0097819D01*
X0095592Y0099375D01*
G37*
G36*
X0097819Y0097148D02*
X0101353Y0100682D01*
X0102909Y0099126D01*
X0099375Y0095592D01*
X0097819Y0097148D01*
G37*
G36*
X0100046Y0094920D02*
X0103580Y0098454D01*
X0105136Y0096898D01*
X0101602Y0093364D01*
X0100046Y0094920D01*
G37*
G36*
X0102273Y0092693D02*
X0105807Y0096227D01*
X0107363Y0094671D01*
X0103829Y0091137D01*
X0102273Y0092693D01*
G37*
G36*
X0104500Y0090466D02*
X0108034Y0094000D01*
X0109590Y0092444D01*
X0106056Y0088910D01*
X0104500Y0090466D01*
G37*
D15*
G36*
X0104500Y0084134D02*
X0106056Y0085690D01*
X0109590Y0082156D01*
X0108034Y0080600D01*
X0104500Y0084134D01*
G37*
G36*
X0102273Y0081907D02*
X0103829Y0083463D01*
X0107363Y0079929D01*
X0105807Y0078373D01*
X0102273Y0081907D01*
G37*
G36*
X0100046Y0079680D02*
X0101602Y0081236D01*
X0105136Y0077702D01*
X0103580Y0076146D01*
X0100046Y0079680D01*
G37*
G36*
X0097819Y0077452D02*
X0099375Y0079008D01*
X0102909Y0075474D01*
X0101353Y0073918D01*
X0097819Y0077452D01*
G37*
G36*
X0095592Y0075225D02*
X0097148Y0076781D01*
X0100682Y0073247D01*
X0099126Y0071691D01*
X0095592Y0075225D01*
G37*
G36*
X0093364Y0072998D02*
X0094920Y0074554D01*
X0098454Y0071020D01*
X0096898Y0069464D01*
X0093364Y0072998D01*
G37*
G36*
X0091137Y0070771D02*
X0092693Y0072327D01*
X0096227Y0068793D01*
X0094671Y0067237D01*
X0091137Y0070771D01*
G37*
G36*
X0088910Y0068544D02*
X0090466Y0070100D01*
X0094000Y0066566D01*
X0092444Y0065010D01*
X0088910Y0068544D01*
G37*
G36*
X0065010Y0092444D02*
X0066566Y0094000D01*
X0070100Y0090466D01*
X0068544Y0088910D01*
X0065010Y0092444D01*
G37*
G36*
X0067237Y0094671D02*
X0068793Y0096227D01*
X0072327Y0092693D01*
X0070771Y0091137D01*
X0067237Y0094671D01*
G37*
G36*
X0069464Y0096898D02*
X0071020Y0098454D01*
X0074554Y0094920D01*
X0072998Y0093364D01*
X0069464Y0096898D01*
G37*
G36*
X0071691Y0099126D02*
X0073247Y0100682D01*
X0076781Y0097148D01*
X0075225Y0095592D01*
X0071691Y0099126D01*
G37*
G36*
X0073918Y0101353D02*
X0075474Y0102909D01*
X0079008Y0099375D01*
X0077452Y0097819D01*
X0073918Y0101353D01*
G37*
G36*
X0076146Y0103580D02*
X0077702Y0105136D01*
X0081236Y0101602D01*
X0079680Y0100046D01*
X0076146Y0103580D01*
G37*
G36*
X0078373Y0105807D02*
X0079929Y0107363D01*
X0083463Y0103829D01*
X0081907Y0102273D01*
X0078373Y0105807D01*
G37*
G36*
X0080600Y0108034D02*
X0082156Y0109590D01*
X0085690Y0106056D01*
X0084134Y0104500D01*
X0080600Y0108034D01*
G37*
D16*
X0136060Y0077800D03*
X0143540Y0077800D03*
X0144060Y0057300D03*
X0151540Y0057300D03*
X0152040Y0039300D03*
X0144560Y0039300D03*
X0144560Y0030800D03*
X0152040Y0030800D03*
X0152540Y0022300D03*
X0145060Y0022300D03*
X0083040Y0023300D03*
X0075560Y0023300D03*
D17*
X0064300Y0138060D03*
X0064300Y0145540D03*
X0055800Y0145540D03*
X0055800Y0138060D03*
X0042300Y0139560D03*
X0042300Y0147040D03*
X0033800Y0147040D03*
X0033800Y0139560D03*
X0033800Y0158060D03*
X0033800Y0165540D03*
X0042300Y0165540D03*
X0042300Y0158060D03*
X0073300Y0153540D03*
X0073300Y0146060D03*
X0081800Y0146060D03*
X0081800Y0153540D03*
X0092300Y0153540D03*
X0092300Y0146060D03*
X0100800Y0146060D03*
X0100800Y0153540D03*
X0109800Y0145540D03*
X0109800Y0138060D03*
X0118300Y0138060D03*
X0118300Y0145540D03*
X0132800Y0147040D03*
X0132800Y0139560D03*
X0140800Y0139560D03*
X0140800Y0147040D03*
X0140800Y0158060D03*
X0140800Y0165540D03*
X0132300Y0165540D03*
X0132300Y0158060D03*
M02*
