G75*
%MOIN*%
%OFA0B0*%
%FSLAX25Y25*%
%IPPOS*%
%LPD*%
%AMOC8*
5,1,8,0,0,1.08239X$1,22.5*
%
%ADD10C,0.00000*%
%ADD11OC8,0.06102*%
%ADD12C,0.07400*%
%ADD13C,0.05200*%
%ADD14C,0.06000*%
%ADD15R,0.07400X0.07400*%
%ADD16C,0.02000*%
%ADD17OC8,0.04000*%
%ADD18C,0.01200*%
%ADD19C,0.01600*%
%ADD20C,0.01000*%
D10*
X0001800Y0001800D02*
X0001800Y0173261D01*
X0173501Y0173261D01*
X0173501Y0001800D01*
X0001800Y0001800D01*
D11*
X0040800Y0010800D03*
X0040800Y0020800D03*
X0040800Y0030800D03*
X0050800Y0030800D03*
X0050800Y0020800D03*
X0050800Y0010800D03*
D12*
X0012800Y0008800D03*
X0012800Y0018800D03*
X0012800Y0028800D03*
X0012800Y0038800D03*
X0012800Y0048800D03*
X0012800Y0058800D03*
X0012800Y0068800D03*
X0012800Y0078800D03*
X0012800Y0088800D03*
X0012800Y0098800D03*
X0012800Y0108800D03*
X0012800Y0118800D03*
X0012800Y0128800D03*
X0012800Y0138800D03*
X0012800Y0148800D03*
X0062300Y0165300D03*
X0072300Y0165300D03*
X0082300Y0165300D03*
X0092300Y0165300D03*
X0102300Y0165300D03*
X0112300Y0165300D03*
X0122300Y0165300D03*
X0162800Y0151300D03*
X0162800Y0141300D03*
X0162800Y0131300D03*
X0162800Y0121300D03*
X0162800Y0111300D03*
X0162800Y0101300D03*
X0162800Y0091300D03*
X0162800Y0081300D03*
X0162800Y0071300D03*
X0162800Y0061300D03*
X0162800Y0051300D03*
X0162800Y0041300D03*
X0162800Y0031300D03*
X0162800Y0021300D03*
X0162800Y0011300D03*
D13*
X0122300Y0096800D03*
X0122300Y0115800D03*
D14*
X0102600Y0054700D02*
X0096600Y0054700D01*
X0096600Y0036900D02*
X0102600Y0036900D01*
X0077000Y0036900D02*
X0071000Y0036900D01*
X0071000Y0054700D02*
X0077000Y0054700D01*
D15*
X0052300Y0165300D03*
D16*
X0049800Y0157800D02*
X0037800Y0157800D01*
X0023400Y0143400D01*
X0023400Y0122600D02*
X0023400Y0120200D01*
X0051800Y0091800D01*
X0055400Y0095400D01*
X0061000Y0095400D01*
X0065000Y0091400D01*
X0065000Y0070600D01*
X0050600Y0056200D01*
X0050600Y0054600D01*
X0041000Y0045000D02*
X0030600Y0034600D01*
X0030600Y0013000D01*
X0057800Y0080200D02*
X0057800Y0085800D01*
X0051800Y0091800D01*
X0063400Y0144200D02*
X0123400Y0144200D01*
X0125000Y0142600D01*
X0117000Y0131400D02*
X0117000Y0116200D01*
X0109800Y0109000D01*
X0135400Y0088200D02*
X0135400Y0044200D01*
X0063400Y0144200D02*
X0049800Y0157800D01*
D17*
X0049800Y0157800D03*
X0062600Y0151400D03*
X0077800Y0140200D03*
X0073000Y0132200D03*
X0073000Y0126600D03*
X0083400Y0116200D03*
X0073000Y0112200D03*
X0061800Y0104200D03*
X0058600Y0091400D03*
X0057800Y0080200D03*
X0057800Y0073800D03*
X0051400Y0069800D03*
X0046600Y0079400D03*
X0046600Y0090600D03*
X0031400Y0084200D03*
X0022600Y0104200D03*
X0023400Y0122600D03*
X0038600Y0127400D03*
X0043400Y0129800D03*
X0056200Y0132200D03*
X0027400Y0140200D03*
X0023400Y0143400D03*
X0076200Y0089800D03*
X0078600Y0094600D03*
X0081800Y0090600D03*
X0085800Y0087400D03*
X0086600Y0094600D03*
X0095400Y0080200D03*
X0102600Y0087400D03*
X0109800Y0088200D03*
X0107400Y0099400D03*
X0109800Y0109000D03*
X0097000Y0113800D03*
X0103400Y0123400D03*
X0117000Y0131400D03*
X0125000Y0142600D03*
X0125800Y0157800D03*
X0147400Y0140200D03*
X0143400Y0130600D03*
X0134600Y0122600D03*
X0157000Y0146600D03*
X0135400Y0088200D03*
X0129000Y0071400D03*
X0145800Y0064200D03*
X0151400Y0064200D03*
X0156200Y0066600D03*
X0135400Y0044200D03*
X0129800Y0049800D03*
X0125800Y0042600D03*
X0130600Y0033800D03*
X0138600Y0033800D03*
X0138600Y0028200D03*
X0157000Y0016200D03*
X0121000Y0053000D03*
X0117800Y0033800D03*
X0113800Y0026600D03*
X0105000Y0025800D03*
X0098600Y0016200D03*
X0084200Y0041000D03*
X0085800Y0054600D03*
X0081800Y0059400D03*
X0089800Y0063400D03*
X0107400Y0074600D03*
X0069800Y0073000D03*
X0050600Y0054600D03*
X0057000Y0049800D03*
X0055400Y0039400D03*
X0061000Y0039400D03*
X0041000Y0045000D03*
X0037000Y0049800D03*
X0034600Y0058600D03*
X0031400Y0062600D03*
X0025800Y0015400D03*
X0030600Y0013000D03*
D18*
X0041000Y0030600D02*
X0040800Y0030800D01*
X0041000Y0030600D02*
X0044200Y0030600D01*
X0049000Y0025800D01*
X0063400Y0025800D01*
X0073800Y0036200D01*
X0074000Y0036900D01*
X0099600Y0036900D02*
X0100200Y0036200D01*
X0105000Y0031400D01*
X0105000Y0025800D01*
X0145800Y0064200D02*
X0145800Y0104200D01*
X0149800Y0108200D01*
X0149800Y0121000D01*
X0155400Y0126600D01*
X0155400Y0141800D01*
X0155800Y0142200D01*
X0146600Y0151400D01*
X0125800Y0151400D01*
X0125800Y0157800D01*
X0125800Y0151400D02*
X0062600Y0151400D01*
X0029000Y0106600D02*
X0017000Y0118600D01*
X0013000Y0118600D01*
X0012800Y0118800D01*
X0029000Y0106600D02*
X0029000Y0102600D01*
X0057800Y0073800D01*
X0057000Y0073800D01*
X0057000Y0069800D01*
X0037000Y0049800D01*
X0155800Y0142200D02*
X0156200Y0141800D01*
X0162600Y0141800D01*
X0162800Y0141300D01*
D19*
X0163000Y0141500D02*
X0162600Y0141500D01*
X0162600Y0145800D01*
X0163000Y0145800D01*
X0163000Y0141500D01*
X0162600Y0141500D02*
X0162600Y0141100D01*
X0157300Y0141100D01*
X0157300Y0140867D01*
X0157435Y0140012D01*
X0157703Y0139189D01*
X0158096Y0138417D01*
X0158605Y0137717D01*
X0159217Y0137105D01*
X0159917Y0136596D01*
X0160499Y0136300D01*
X0159684Y0135963D01*
X0158137Y0134415D01*
X0157300Y0132394D01*
X0157300Y0130206D01*
X0157784Y0129037D01*
X0154700Y0125953D01*
X0154700Y0113153D01*
X0149100Y0107553D01*
X0149100Y0067274D01*
X0147600Y0065774D01*
X0147600Y0062626D01*
X0149826Y0060400D01*
X0152974Y0060400D01*
X0155200Y0062626D01*
X0155200Y0062800D01*
X0157468Y0062800D01*
X0157300Y0062394D01*
X0157300Y0060206D01*
X0157667Y0059320D01*
X0140847Y0042500D01*
X0139074Y0042500D01*
X0139200Y0042626D01*
X0139200Y0045774D01*
X0138200Y0046774D01*
X0138200Y0085626D01*
X0139200Y0086626D01*
X0139200Y0089774D01*
X0136974Y0092000D01*
X0133826Y0092000D01*
X0131600Y0089774D01*
X0131600Y0086626D01*
X0132600Y0085626D01*
X0132600Y0073174D01*
X0130574Y0075200D01*
X0127426Y0075200D01*
X0125200Y0072974D01*
X0125200Y0069826D01*
X0126700Y0068326D01*
X0126700Y0052074D01*
X0126000Y0051374D01*
X0126000Y0051253D01*
X0124800Y0052453D01*
X0124800Y0054574D01*
X0122574Y0056800D01*
X0119426Y0056800D01*
X0117200Y0054574D01*
X0117200Y0054453D01*
X0109700Y0061953D01*
X0109700Y0071526D01*
X0111200Y0073026D01*
X0111200Y0076174D01*
X0109474Y0077900D01*
X0113153Y0077900D01*
X0148353Y0113100D01*
X0149700Y0114447D01*
X0149700Y0137126D01*
X0151200Y0138626D01*
X0151200Y0141774D01*
X0148974Y0144000D01*
X0145826Y0144000D01*
X0143600Y0141774D01*
X0143600Y0138626D01*
X0145100Y0137126D01*
X0145100Y0134274D01*
X0144974Y0134400D01*
X0141826Y0134400D01*
X0140326Y0132900D01*
X0136047Y0132900D01*
X0134700Y0131553D01*
X0128900Y0125753D01*
X0128900Y0128353D01*
X0116100Y0141153D01*
X0115853Y0141400D01*
X0121200Y0141400D01*
X0121200Y0141026D01*
X0123426Y0138800D01*
X0126574Y0138800D01*
X0128800Y0141026D01*
X0128800Y0144174D01*
X0126574Y0146400D01*
X0125160Y0146400D01*
X0124986Y0146574D01*
X0123957Y0147000D01*
X0064560Y0147000D01*
X0053600Y0157960D01*
X0053600Y0159374D01*
X0053174Y0159800D01*
X0056746Y0159800D01*
X0057800Y0160854D01*
X0057800Y0162022D01*
X0059184Y0160637D01*
X0061206Y0159800D01*
X0063394Y0159800D01*
X0065415Y0160637D01*
X0066963Y0162184D01*
X0067300Y0162999D01*
X0067637Y0162184D01*
X0069184Y0160637D01*
X0071206Y0159800D01*
X0073394Y0159800D01*
X0075415Y0160637D01*
X0076963Y0162184D01*
X0077300Y0162999D01*
X0077637Y0162184D01*
X0079184Y0160637D01*
X0081206Y0159800D01*
X0083394Y0159800D01*
X0085415Y0160637D01*
X0086963Y0162184D01*
X0087300Y0162999D01*
X0087637Y0162184D01*
X0089184Y0160637D01*
X0091206Y0159800D01*
X0093394Y0159800D01*
X0095415Y0160637D01*
X0096963Y0162184D01*
X0097300Y0162999D01*
X0097637Y0162184D01*
X0099184Y0160637D01*
X0101206Y0159800D01*
X0103394Y0159800D01*
X0105415Y0160637D01*
X0106963Y0162184D01*
X0107300Y0162999D01*
X0107637Y0162184D01*
X0109184Y0160637D01*
X0111206Y0159800D01*
X0113394Y0159800D01*
X0115415Y0160637D01*
X0116963Y0162184D01*
X0117300Y0162999D01*
X0117637Y0162184D01*
X0119184Y0160637D01*
X0121206Y0159800D01*
X0123394Y0159800D01*
X0125415Y0160637D01*
X0126963Y0162184D01*
X0127800Y0164206D01*
X0127800Y0166394D01*
X0126963Y0168415D01*
X0126918Y0168461D01*
X0168701Y0168461D01*
X0168701Y0156552D01*
X0165953Y0159300D01*
X0160047Y0159300D01*
X0158700Y0157953D01*
X0154700Y0153953D01*
X0154700Y0149674D01*
X0153200Y0148174D01*
X0153200Y0145026D01*
X0155426Y0142800D01*
X0157504Y0142800D01*
X0157435Y0142588D01*
X0157300Y0141733D01*
X0157300Y0141500D01*
X0162600Y0141500D01*
X0162600Y0142469D02*
X0163000Y0142469D01*
X0163000Y0144068D02*
X0162600Y0144068D01*
X0162600Y0145666D02*
X0163000Y0145666D01*
X0157676Y0139272D02*
X0151200Y0139272D01*
X0151200Y0140870D02*
X0157300Y0140870D01*
X0157417Y0142469D02*
X0150505Y0142469D01*
X0153200Y0145666D02*
X0127308Y0145666D01*
X0128800Y0144068D02*
X0154158Y0144068D01*
X0153200Y0147265D02*
X0064295Y0147265D01*
X0062697Y0148863D02*
X0153889Y0148863D01*
X0154700Y0150462D02*
X0061098Y0150462D01*
X0059500Y0152060D02*
X0154700Y0152060D01*
X0154700Y0153659D02*
X0057901Y0153659D01*
X0056303Y0155257D02*
X0156004Y0155257D01*
X0157603Y0156856D02*
X0054704Y0156856D01*
X0053600Y0158454D02*
X0159201Y0158454D01*
X0166799Y0158454D02*
X0168701Y0158454D01*
X0168701Y0156856D02*
X0168397Y0156856D01*
X0168701Y0160053D02*
X0124004Y0160053D01*
X0126429Y0161651D02*
X0168701Y0161651D01*
X0168701Y0163250D02*
X0127404Y0163250D01*
X0127800Y0164848D02*
X0168701Y0164848D01*
X0168701Y0166447D02*
X0127778Y0166447D01*
X0127116Y0168045D02*
X0168701Y0168045D01*
X0144295Y0142469D02*
X0128800Y0142469D01*
X0128644Y0140870D02*
X0143600Y0140870D01*
X0143600Y0139272D02*
X0127046Y0139272D01*
X0122954Y0139272D02*
X0117981Y0139272D01*
X0119579Y0137673D02*
X0144553Y0137673D01*
X0145100Y0136075D02*
X0121178Y0136075D01*
X0122776Y0134476D02*
X0145100Y0134476D01*
X0149700Y0134476D02*
X0158198Y0134476D01*
X0157500Y0132878D02*
X0149700Y0132878D01*
X0149700Y0131279D02*
X0157300Y0131279D01*
X0157517Y0129681D02*
X0149700Y0129681D01*
X0149700Y0128082D02*
X0156830Y0128082D01*
X0155231Y0126484D02*
X0149700Y0126484D01*
X0149700Y0124885D02*
X0154700Y0124885D01*
X0154700Y0123287D02*
X0149700Y0123287D01*
X0149700Y0121688D02*
X0154700Y0121688D01*
X0154700Y0120090D02*
X0149700Y0120090D01*
X0149700Y0118491D02*
X0154700Y0118491D01*
X0154700Y0116893D02*
X0149700Y0116893D01*
X0149700Y0115294D02*
X0154700Y0115294D01*
X0154700Y0113696D02*
X0148948Y0113696D01*
X0147350Y0112097D02*
X0153645Y0112097D01*
X0152046Y0110499D02*
X0145751Y0110499D01*
X0144153Y0108900D02*
X0150448Y0108900D01*
X0149100Y0107302D02*
X0142554Y0107302D01*
X0140956Y0105703D02*
X0149100Y0105703D01*
X0149100Y0104105D02*
X0139357Y0104105D01*
X0137759Y0102506D02*
X0149100Y0102506D01*
X0149100Y0100908D02*
X0136160Y0100908D01*
X0134562Y0099309D02*
X0149100Y0099309D01*
X0149100Y0097711D02*
X0132963Y0097711D01*
X0131365Y0096112D02*
X0149100Y0096112D01*
X0149100Y0094514D02*
X0129766Y0094514D01*
X0128168Y0092915D02*
X0149100Y0092915D01*
X0149100Y0091317D02*
X0137657Y0091317D01*
X0139200Y0089718D02*
X0149100Y0089718D01*
X0149100Y0088120D02*
X0139200Y0088120D01*
X0139095Y0086521D02*
X0149100Y0086521D01*
X0149100Y0084923D02*
X0138200Y0084923D01*
X0138200Y0083324D02*
X0149100Y0083324D01*
X0149100Y0081726D02*
X0138200Y0081726D01*
X0138200Y0080127D02*
X0149100Y0080127D01*
X0149100Y0078529D02*
X0138200Y0078529D01*
X0138200Y0076930D02*
X0149100Y0076930D01*
X0149100Y0075332D02*
X0138200Y0075332D01*
X0138200Y0073733D02*
X0149100Y0073733D01*
X0149100Y0072134D02*
X0138200Y0072134D01*
X0138200Y0070536D02*
X0149100Y0070536D01*
X0149100Y0068937D02*
X0138200Y0068937D01*
X0138200Y0067339D02*
X0149100Y0067339D01*
X0147600Y0065740D02*
X0138200Y0065740D01*
X0138200Y0064142D02*
X0147600Y0064142D01*
X0147683Y0062543D02*
X0138200Y0062543D01*
X0138200Y0060945D02*
X0149281Y0060945D01*
X0153519Y0060945D02*
X0157300Y0060945D01*
X0157362Y0062543D02*
X0155117Y0062543D01*
X0157656Y0059346D02*
X0138200Y0059346D01*
X0138200Y0057748D02*
X0156095Y0057748D01*
X0154497Y0056149D02*
X0138200Y0056149D01*
X0138200Y0054551D02*
X0152898Y0054551D01*
X0151300Y0052952D02*
X0138200Y0052952D01*
X0138200Y0051354D02*
X0149701Y0051354D01*
X0148103Y0049755D02*
X0138200Y0049755D01*
X0138200Y0048157D02*
X0146504Y0048157D01*
X0144906Y0046558D02*
X0138416Y0046558D01*
X0139200Y0044960D02*
X0143307Y0044960D01*
X0141709Y0043361D02*
X0139200Y0043361D01*
X0126700Y0052952D02*
X0124800Y0052952D01*
X0124800Y0054551D02*
X0126700Y0054551D01*
X0126700Y0056149D02*
X0123225Y0056149D01*
X0126700Y0057748D02*
X0113905Y0057748D01*
X0115503Y0056149D02*
X0118775Y0056149D01*
X0117200Y0054551D02*
X0117102Y0054551D01*
X0112306Y0059346D02*
X0126700Y0059346D01*
X0126700Y0060945D02*
X0110708Y0060945D01*
X0109700Y0062543D02*
X0126700Y0062543D01*
X0126700Y0064142D02*
X0109700Y0064142D01*
X0109700Y0065740D02*
X0126700Y0065740D01*
X0126700Y0067339D02*
X0109700Y0067339D01*
X0109700Y0068937D02*
X0126089Y0068937D01*
X0125200Y0070536D02*
X0109700Y0070536D01*
X0110309Y0072134D02*
X0125200Y0072134D01*
X0125959Y0073733D02*
X0111200Y0073733D01*
X0111200Y0075332D02*
X0132600Y0075332D01*
X0132600Y0076930D02*
X0110444Y0076930D01*
X0113781Y0078529D02*
X0132600Y0078529D01*
X0132600Y0080127D02*
X0115380Y0080127D01*
X0116978Y0081726D02*
X0132600Y0081726D01*
X0132600Y0083324D02*
X0118577Y0083324D01*
X0120175Y0084923D02*
X0132600Y0084923D01*
X0131705Y0086521D02*
X0121774Y0086521D01*
X0123372Y0088120D02*
X0131600Y0088120D01*
X0131600Y0089718D02*
X0124971Y0089718D01*
X0126569Y0091317D02*
X0133143Y0091317D01*
X0132600Y0073733D02*
X0132041Y0073733D01*
X0126000Y0051354D02*
X0125899Y0051354D01*
X0108977Y0033770D02*
X0106258Y0033770D01*
X0106261Y0033773D02*
X0106705Y0034384D01*
X0107048Y0035057D01*
X0107206Y0035542D01*
X0112347Y0030400D01*
X0112226Y0030400D01*
X0110000Y0028174D01*
X0110000Y0025026D01*
X0110626Y0024400D01*
X0104477Y0024400D01*
X0096777Y0032100D01*
X0099400Y0032100D01*
X0099400Y0036700D01*
X0092177Y0036700D01*
X0088000Y0040877D01*
X0088000Y0042574D01*
X0087874Y0042700D01*
X0100047Y0042700D01*
X0101047Y0041700D01*
X0099800Y0041700D01*
X0099800Y0037100D01*
X0099400Y0037100D01*
X0099400Y0041700D01*
X0096222Y0041700D01*
X0095476Y0041582D01*
X0094757Y0041348D01*
X0094084Y0041005D01*
X0093473Y0040561D01*
X0092939Y0040027D01*
X0092495Y0039416D01*
X0092152Y0038743D01*
X0091918Y0038024D01*
X0091800Y0037278D01*
X0091800Y0037100D01*
X0099400Y0037100D01*
X0099400Y0036700D01*
X0099800Y0036700D01*
X0099800Y0032100D01*
X0102978Y0032100D01*
X0103724Y0032218D01*
X0104443Y0032452D01*
X0105116Y0032795D01*
X0105727Y0033239D01*
X0106261Y0033773D01*
X0107149Y0035369D02*
X0107379Y0035369D01*
X0110576Y0032172D02*
X0103431Y0032172D01*
X0099902Y0028975D02*
X0110801Y0028975D01*
X0110000Y0027376D02*
X0101501Y0027376D01*
X0103099Y0025778D02*
X0110000Y0025778D01*
X0113800Y0026600D02*
X0113800Y0021800D01*
X0103400Y0021800D01*
X0084200Y0041000D01*
X0084323Y0037200D02*
X0082626Y0037200D01*
X0081624Y0038202D01*
X0081682Y0038024D01*
X0081800Y0037278D01*
X0081800Y0037100D01*
X0074200Y0037100D01*
X0074200Y0036700D01*
X0081800Y0036700D01*
X0081800Y0036522D01*
X0081682Y0035776D01*
X0081448Y0035057D01*
X0081105Y0034384D01*
X0080661Y0033773D01*
X0080127Y0033239D01*
X0079516Y0032795D01*
X0078843Y0032452D01*
X0078124Y0032218D01*
X0077378Y0032100D01*
X0074200Y0032100D01*
X0074200Y0036700D01*
X0073800Y0036700D01*
X0073800Y0032100D01*
X0070622Y0032100D01*
X0069876Y0032218D01*
X0069157Y0032452D01*
X0068484Y0032795D01*
X0067873Y0033239D01*
X0067339Y0033773D01*
X0066895Y0034384D01*
X0066552Y0035057D01*
X0066492Y0035240D01*
X0064353Y0033100D01*
X0055361Y0033100D01*
X0055651Y0032809D01*
X0055651Y0028791D01*
X0052809Y0025949D01*
X0048791Y0025949D01*
X0045949Y0028791D01*
X0045949Y0032809D01*
X0048791Y0035651D01*
X0050296Y0035651D01*
X0049100Y0036847D01*
X0049100Y0041953D01*
X0053900Y0046753D01*
X0054287Y0047139D01*
X0053200Y0048226D01*
X0053200Y0051374D01*
X0054400Y0052574D01*
X0054400Y0055117D01*
X0054796Y0056073D01*
X0055527Y0056804D01*
X0067200Y0068477D01*
X0067200Y0068840D01*
X0066586Y0068226D01*
X0054400Y0056040D01*
X0054400Y0053026D01*
X0052174Y0050800D01*
X0049026Y0050800D01*
X0047300Y0052526D01*
X0047300Y0040847D01*
X0042104Y0035651D01*
X0042809Y0035651D01*
X0045651Y0032809D01*
X0045651Y0030935D01*
X0040935Y0030935D01*
X0040935Y0030665D01*
X0045651Y0030665D01*
X0045651Y0028791D01*
X0042809Y0025949D01*
X0040935Y0025949D01*
X0040935Y0030665D01*
X0040665Y0030665D01*
X0040665Y0025949D01*
X0038791Y0025949D01*
X0038500Y0026239D01*
X0038500Y0025361D01*
X0038791Y0025651D01*
X0042809Y0025651D01*
X0045651Y0022809D01*
X0045651Y0018791D01*
X0044561Y0017700D01*
X0047039Y0017700D01*
X0045949Y0018791D01*
X0045949Y0022809D01*
X0048791Y0025651D01*
X0052809Y0025651D01*
X0055651Y0022809D01*
X0055651Y0018791D01*
X0052809Y0015949D01*
X0049304Y0015949D01*
X0049602Y0015651D01*
X0052809Y0015651D01*
X0055651Y0012809D01*
X0055651Y0008791D01*
X0053461Y0006600D01*
X0159775Y0006600D01*
X0159684Y0006637D01*
X0158137Y0008184D01*
X0157300Y0010206D01*
X0157300Y0012394D01*
X0157302Y0012400D01*
X0155426Y0012400D01*
X0153926Y0013900D01*
X0101674Y0013900D01*
X0100174Y0012400D01*
X0097026Y0012400D01*
X0094800Y0014626D01*
X0094800Y0017774D01*
X0097026Y0020000D01*
X0100174Y0020000D01*
X0101674Y0018500D01*
X0153926Y0018500D01*
X0154844Y0019418D01*
X0154317Y0019200D01*
X0102883Y0019200D01*
X0101927Y0019596D01*
X0101196Y0020327D01*
X0101196Y0020327D01*
X0084323Y0037200D01*
X0084556Y0036967D02*
X0074200Y0036967D01*
X0074200Y0037100D02*
X0073800Y0037100D01*
X0073800Y0041700D01*
X0072153Y0041700D01*
X0073153Y0042700D01*
X0080526Y0042700D01*
X0080400Y0042574D01*
X0080400Y0040288D01*
X0080127Y0040561D01*
X0079516Y0041005D01*
X0078843Y0041348D01*
X0078124Y0041582D01*
X0077378Y0041700D01*
X0074200Y0041700D01*
X0074200Y0037100D01*
X0074200Y0038566D02*
X0073800Y0038566D01*
X0073800Y0040164D02*
X0074200Y0040164D01*
X0072215Y0041763D02*
X0080400Y0041763D01*
X0081549Y0035369D02*
X0086154Y0035369D01*
X0087753Y0033770D02*
X0080658Y0033770D01*
X0077831Y0032172D02*
X0089351Y0032172D01*
X0090950Y0030573D02*
X0055651Y0030573D01*
X0055651Y0028975D02*
X0092548Y0028975D01*
X0094147Y0027376D02*
X0054237Y0027376D01*
X0054281Y0024179D02*
X0097344Y0024179D01*
X0098942Y0022581D02*
X0055651Y0022581D01*
X0055651Y0020982D02*
X0100541Y0020982D01*
X0100790Y0019384D02*
X0102440Y0019384D01*
X0096410Y0019384D02*
X0055651Y0019384D01*
X0054646Y0017785D02*
X0094811Y0017785D01*
X0094800Y0016187D02*
X0053047Y0016187D01*
X0053872Y0014588D02*
X0094838Y0014588D01*
X0096436Y0012990D02*
X0055471Y0012990D01*
X0055651Y0011391D02*
X0157300Y0011391D01*
X0157471Y0009793D02*
X0055651Y0009793D01*
X0055055Y0008194D02*
X0158133Y0008194D01*
X0154836Y0012990D02*
X0100764Y0012990D01*
X0095745Y0025778D02*
X0038500Y0025778D01*
X0040665Y0027376D02*
X0040935Y0027376D01*
X0040935Y0028975D02*
X0040665Y0028975D01*
X0040665Y0030573D02*
X0040935Y0030573D01*
X0044237Y0027376D02*
X0047363Y0027376D01*
X0045949Y0028975D02*
X0045651Y0028975D01*
X0045651Y0030573D02*
X0045949Y0030573D01*
X0045949Y0032172D02*
X0045651Y0032172D01*
X0044690Y0033770D02*
X0046910Y0033770D01*
X0048508Y0035369D02*
X0043092Y0035369D01*
X0043420Y0036967D02*
X0049100Y0036967D01*
X0049100Y0038566D02*
X0045018Y0038566D01*
X0046617Y0040164D02*
X0049100Y0040164D01*
X0049100Y0041763D02*
X0047300Y0041763D01*
X0047300Y0043361D02*
X0050509Y0043361D01*
X0052107Y0044960D02*
X0047300Y0044960D01*
X0047300Y0046558D02*
X0053706Y0046558D01*
X0053269Y0048157D02*
X0047300Y0048157D01*
X0047300Y0049755D02*
X0053200Y0049755D01*
X0053200Y0051354D02*
X0052728Y0051354D01*
X0054326Y0052952D02*
X0054400Y0052952D01*
X0054400Y0054551D02*
X0054400Y0054551D01*
X0054509Y0056149D02*
X0054872Y0056149D01*
X0056108Y0057748D02*
X0056471Y0057748D01*
X0057706Y0059346D02*
X0058069Y0059346D01*
X0059305Y0060945D02*
X0059668Y0060945D01*
X0060903Y0062543D02*
X0061266Y0062543D01*
X0062502Y0064142D02*
X0062865Y0064142D01*
X0064100Y0065740D02*
X0064464Y0065740D01*
X0065699Y0067339D02*
X0066062Y0067339D01*
X0069800Y0067400D02*
X0057000Y0054600D01*
X0057000Y0049800D01*
X0048472Y0051354D02*
X0047300Y0051354D01*
X0042700Y0051354D02*
X0036207Y0051354D01*
X0037805Y0052952D02*
X0042700Y0052952D01*
X0042700Y0054551D02*
X0039404Y0054551D01*
X0041002Y0056149D02*
X0043297Y0056149D01*
X0042700Y0055553D02*
X0042700Y0048674D01*
X0042574Y0048800D01*
X0039426Y0048800D01*
X0037200Y0046574D01*
X0037200Y0045160D01*
X0028226Y0036186D01*
X0028100Y0035881D01*
X0028100Y0043247D01*
X0050853Y0066000D01*
X0052974Y0066000D01*
X0055200Y0068226D01*
X0055200Y0071374D01*
X0052974Y0073600D01*
X0049826Y0073600D01*
X0047600Y0071374D01*
X0047600Y0069253D01*
X0038400Y0060053D01*
X0038400Y0060174D01*
X0036174Y0062400D01*
X0035200Y0062400D01*
X0035200Y0064174D01*
X0033700Y0065674D01*
X0033700Y0081126D01*
X0035200Y0082626D01*
X0035200Y0085774D01*
X0032974Y0088000D01*
X0029826Y0088000D01*
X0027600Y0085774D01*
X0027600Y0082626D01*
X0029100Y0081126D01*
X0029100Y0065674D01*
X0027600Y0064174D01*
X0027600Y0061026D01*
X0027726Y0060900D01*
X0017883Y0060900D01*
X0017463Y0061915D01*
X0015915Y0063463D01*
X0015101Y0063800D01*
X0015915Y0064137D01*
X0017463Y0065684D01*
X0018300Y0067706D01*
X0018300Y0069894D01*
X0017463Y0071915D01*
X0017115Y0072263D01*
X0023553Y0078700D01*
X0024900Y0080047D01*
X0024900Y0100247D01*
X0025647Y0099500D01*
X0043487Y0081661D01*
X0042800Y0080974D01*
X0042800Y0077826D01*
X0045026Y0075600D01*
X0048174Y0075600D01*
X0050400Y0077826D01*
X0050400Y0080974D01*
X0048900Y0082474D01*
X0048900Y0082753D01*
X0028900Y0102753D01*
X0028900Y0106753D01*
X0026500Y0109153D01*
X0025153Y0110500D01*
X0018049Y0110500D01*
X0017463Y0111915D01*
X0015915Y0113463D01*
X0015101Y0113800D01*
X0015683Y0114096D01*
X0016383Y0114605D01*
X0016995Y0115217D01*
X0017504Y0115917D01*
X0017897Y0116689D01*
X0018165Y0117512D01*
X0018256Y0118091D01*
X0043487Y0092861D01*
X0042800Y0092174D01*
X0042800Y0089026D01*
X0045026Y0086800D01*
X0048174Y0086800D01*
X0050400Y0089026D01*
X0050400Y0089240D01*
X0055000Y0084640D01*
X0055000Y0082774D01*
X0054000Y0081774D01*
X0054000Y0078626D01*
X0056226Y0076400D01*
X0059374Y0076400D01*
X0059500Y0076526D01*
X0059500Y0072353D01*
X0044047Y0056900D01*
X0042700Y0055553D01*
X0042601Y0057748D02*
X0044895Y0057748D01*
X0044199Y0059346D02*
X0046494Y0059346D01*
X0045798Y0060945D02*
X0048092Y0060945D01*
X0047396Y0062543D02*
X0049691Y0062543D01*
X0048995Y0064142D02*
X0051289Y0064142D01*
X0050593Y0065740D02*
X0052888Y0065740D01*
X0054313Y0067339D02*
X0054486Y0067339D01*
X0055200Y0068937D02*
X0056085Y0068937D01*
X0055200Y0070536D02*
X0057683Y0070536D01*
X0059282Y0072134D02*
X0054439Y0072134D01*
X0055696Y0076930D02*
X0049504Y0076930D01*
X0050400Y0078529D02*
X0054097Y0078529D01*
X0054000Y0080127D02*
X0050400Y0080127D01*
X0049648Y0081726D02*
X0054000Y0081726D01*
X0055000Y0083324D02*
X0048329Y0083324D01*
X0046730Y0084923D02*
X0054718Y0084923D01*
X0053119Y0086521D02*
X0045132Y0086521D01*
X0043706Y0088120D02*
X0043533Y0088120D01*
X0042800Y0089718D02*
X0041935Y0089718D01*
X0042800Y0091317D02*
X0040336Y0091317D01*
X0038738Y0092915D02*
X0043432Y0092915D01*
X0041834Y0094514D02*
X0037139Y0094514D01*
X0035541Y0096112D02*
X0040235Y0096112D01*
X0038637Y0097711D02*
X0033942Y0097711D01*
X0032343Y0099309D02*
X0037038Y0099309D01*
X0035440Y0100908D02*
X0030745Y0100908D01*
X0029146Y0102506D02*
X0033841Y0102506D01*
X0032243Y0104105D02*
X0028900Y0104105D01*
X0028900Y0105703D02*
X0030644Y0105703D01*
X0029046Y0107302D02*
X0028351Y0107302D01*
X0027447Y0108900D02*
X0026752Y0108900D01*
X0025849Y0110499D02*
X0025154Y0110499D01*
X0024250Y0112097D02*
X0017281Y0112097D01*
X0015353Y0113696D02*
X0022652Y0113696D01*
X0021053Y0115294D02*
X0017051Y0115294D01*
X0017963Y0116893D02*
X0019455Y0116893D01*
X0017747Y0118600D02*
X0013000Y0118600D01*
X0013000Y0119000D01*
X0017347Y0119000D01*
X0017747Y0118600D01*
X0012600Y0118600D02*
X0007300Y0118600D01*
X0007300Y0118367D01*
X0007435Y0117512D01*
X0007703Y0116689D01*
X0008096Y0115917D01*
X0008605Y0115217D01*
X0009217Y0114605D01*
X0009917Y0114096D01*
X0010499Y0113800D01*
X0009684Y0113463D01*
X0008137Y0111915D01*
X0007300Y0109894D01*
X0007300Y0107706D01*
X0008137Y0105684D01*
X0009684Y0104137D01*
X0010499Y0103800D01*
X0009684Y0103463D01*
X0008137Y0101915D01*
X0007300Y0099894D01*
X0007300Y0097706D01*
X0008137Y0095684D01*
X0009684Y0094137D01*
X0010499Y0093800D01*
X0009684Y0093463D01*
X0008137Y0091915D01*
X0007300Y0089894D01*
X0007300Y0087706D01*
X0008137Y0085684D01*
X0009684Y0084137D01*
X0010499Y0083800D01*
X0009684Y0083463D01*
X0008137Y0081915D01*
X0007300Y0079894D01*
X0007300Y0077706D01*
X0008137Y0075684D01*
X0009684Y0074137D01*
X0010499Y0073800D01*
X0009684Y0073463D01*
X0008137Y0071915D01*
X0007300Y0069894D01*
X0007300Y0067706D01*
X0008137Y0065684D01*
X0009684Y0064137D01*
X0010499Y0063800D01*
X0009684Y0063463D01*
X0008137Y0061915D01*
X0007300Y0059894D01*
X0007300Y0057706D01*
X0008137Y0055684D01*
X0009684Y0054137D01*
X0010499Y0053800D01*
X0009684Y0053463D01*
X0008137Y0051915D01*
X0007300Y0049894D01*
X0007300Y0047706D01*
X0008137Y0045684D01*
X0009684Y0044137D01*
X0010499Y0043800D01*
X0009684Y0043463D01*
X0008137Y0041915D01*
X0007300Y0039894D01*
X0007300Y0037706D01*
X0008137Y0035684D01*
X0009684Y0034137D01*
X0010499Y0033800D01*
X0009684Y0033463D01*
X0008137Y0031915D01*
X0007300Y0029894D01*
X0007300Y0027706D01*
X0008137Y0025684D01*
X0009684Y0024137D01*
X0010499Y0023800D01*
X0009684Y0023463D01*
X0008137Y0021915D01*
X0007300Y0019894D01*
X0007300Y0017706D01*
X0008137Y0015684D01*
X0009684Y0014137D01*
X0010499Y0013800D01*
X0009684Y0013463D01*
X0008137Y0011915D01*
X0007300Y0009894D01*
X0007300Y0007706D01*
X0007758Y0006600D01*
X0006600Y0006600D01*
X0006600Y0168461D01*
X0046800Y0168461D01*
X0046800Y0160854D01*
X0047054Y0160600D01*
X0037243Y0160600D01*
X0036214Y0160174D01*
X0035426Y0159386D01*
X0023240Y0147200D01*
X0021826Y0147200D01*
X0019600Y0144974D01*
X0019600Y0144053D01*
X0017611Y0146042D01*
X0018300Y0147706D01*
X0018300Y0149894D01*
X0017463Y0151915D01*
X0015915Y0153463D01*
X0013894Y0154300D01*
X0011706Y0154300D01*
X0009684Y0153463D01*
X0008137Y0151915D01*
X0007300Y0149894D01*
X0007300Y0147706D01*
X0008137Y0145684D01*
X0009684Y0144137D01*
X0010499Y0143800D01*
X0009684Y0143463D01*
X0008137Y0141915D01*
X0007300Y0139894D01*
X0007300Y0137706D01*
X0008137Y0135684D01*
X0009684Y0134137D01*
X0010499Y0133800D01*
X0009684Y0133463D01*
X0008137Y0131915D01*
X0007300Y0129894D01*
X0007300Y0127706D01*
X0008137Y0125684D01*
X0009684Y0124137D01*
X0010499Y0123800D01*
X0009917Y0123504D01*
X0009217Y0122995D01*
X0008605Y0122383D01*
X0008096Y0121683D01*
X0007703Y0120911D01*
X0007435Y0120088D01*
X0007300Y0119233D01*
X0007300Y0119000D01*
X0012600Y0119000D01*
X0012600Y0118600D01*
X0010247Y0113696D02*
X0006600Y0113696D01*
X0006600Y0115294D02*
X0008549Y0115294D01*
X0007637Y0116893D02*
X0006600Y0116893D01*
X0006600Y0118491D02*
X0007300Y0118491D01*
X0007436Y0120090D02*
X0006600Y0120090D01*
X0006600Y0121688D02*
X0008100Y0121688D01*
X0006600Y0123287D02*
X0009618Y0123287D01*
X0008936Y0124885D02*
X0006600Y0124885D01*
X0006600Y0126484D02*
X0007806Y0126484D01*
X0007300Y0128082D02*
X0006600Y0128082D01*
X0006600Y0129681D02*
X0007300Y0129681D01*
X0007874Y0131279D02*
X0006600Y0131279D01*
X0006600Y0132878D02*
X0009100Y0132878D01*
X0009345Y0134476D02*
X0006600Y0134476D01*
X0006600Y0136075D02*
X0007976Y0136075D01*
X0007313Y0137673D02*
X0006600Y0137673D01*
X0006600Y0139272D02*
X0007300Y0139272D01*
X0007704Y0140870D02*
X0006600Y0140870D01*
X0006600Y0142469D02*
X0008691Y0142469D01*
X0009853Y0144068D02*
X0006600Y0144068D01*
X0006600Y0145666D02*
X0008156Y0145666D01*
X0007483Y0147265D02*
X0006600Y0147265D01*
X0006600Y0148863D02*
X0007300Y0148863D01*
X0007535Y0150462D02*
X0006600Y0150462D01*
X0006600Y0152060D02*
X0008282Y0152060D01*
X0006600Y0153659D02*
X0010157Y0153659D01*
X0006600Y0155257D02*
X0031297Y0155257D01*
X0029699Y0153659D02*
X0015443Y0153659D01*
X0017318Y0152060D02*
X0028100Y0152060D01*
X0026502Y0150462D02*
X0018065Y0150462D01*
X0018300Y0148863D02*
X0024903Y0148863D01*
X0023305Y0147265D02*
X0018117Y0147265D01*
X0017987Y0145666D02*
X0020292Y0145666D01*
X0019600Y0144068D02*
X0019585Y0144068D01*
X0006600Y0156856D02*
X0032896Y0156856D01*
X0034494Y0158454D02*
X0006600Y0158454D01*
X0006600Y0160053D02*
X0036093Y0160053D01*
X0046800Y0161651D02*
X0006600Y0161651D01*
X0006600Y0163250D02*
X0046800Y0163250D01*
X0046800Y0164848D02*
X0006600Y0164848D01*
X0006600Y0166447D02*
X0046800Y0166447D01*
X0046800Y0168045D02*
X0006600Y0168045D01*
X0056998Y0160053D02*
X0060596Y0160053D01*
X0058171Y0161651D02*
X0057800Y0161651D01*
X0064004Y0160053D02*
X0070596Y0160053D01*
X0068171Y0161651D02*
X0066429Y0161651D01*
X0074004Y0160053D02*
X0080596Y0160053D01*
X0084004Y0160053D02*
X0090596Y0160053D01*
X0088171Y0161651D02*
X0086429Y0161651D01*
X0094004Y0160053D02*
X0100596Y0160053D01*
X0098171Y0161651D02*
X0096429Y0161651D01*
X0104004Y0160053D02*
X0110596Y0160053D01*
X0108171Y0161651D02*
X0106429Y0161651D01*
X0114004Y0160053D02*
X0120596Y0160053D01*
X0118171Y0161651D02*
X0116429Y0161651D01*
X0116382Y0140870D02*
X0121355Y0140870D01*
X0124375Y0132878D02*
X0136025Y0132878D01*
X0134427Y0131279D02*
X0125973Y0131279D01*
X0127572Y0129681D02*
X0132828Y0129681D01*
X0131230Y0128082D02*
X0128900Y0128082D01*
X0128900Y0126484D02*
X0129631Y0126484D01*
X0149700Y0136075D02*
X0159956Y0136075D01*
X0158648Y0137673D02*
X0150247Y0137673D01*
X0078171Y0161651D02*
X0076429Y0161651D01*
X0025838Y0099309D02*
X0024900Y0099309D01*
X0024900Y0097711D02*
X0027437Y0097711D01*
X0029035Y0096112D02*
X0024900Y0096112D01*
X0024900Y0094514D02*
X0030634Y0094514D01*
X0032232Y0092915D02*
X0024900Y0092915D01*
X0024900Y0091317D02*
X0033831Y0091317D01*
X0035429Y0089718D02*
X0024900Y0089718D01*
X0024900Y0088120D02*
X0037028Y0088120D01*
X0038626Y0086521D02*
X0034453Y0086521D01*
X0035200Y0084923D02*
X0040225Y0084923D01*
X0041823Y0083324D02*
X0035200Y0083324D01*
X0034300Y0081726D02*
X0043422Y0081726D01*
X0042800Y0080127D02*
X0033700Y0080127D01*
X0033700Y0078529D02*
X0042800Y0078529D01*
X0043696Y0076930D02*
X0033700Y0076930D01*
X0033700Y0075332D02*
X0059500Y0075332D01*
X0059500Y0073733D02*
X0033700Y0073733D01*
X0033700Y0072134D02*
X0048360Y0072134D01*
X0047600Y0070536D02*
X0033700Y0070536D01*
X0033700Y0068937D02*
X0047285Y0068937D01*
X0045686Y0067339D02*
X0033700Y0067339D01*
X0033700Y0065740D02*
X0044088Y0065740D01*
X0042489Y0064142D02*
X0035200Y0064142D01*
X0035200Y0062543D02*
X0040891Y0062543D01*
X0039292Y0060945D02*
X0037629Y0060945D01*
X0029100Y0065740D02*
X0017486Y0065740D01*
X0018148Y0067339D02*
X0029100Y0067339D01*
X0029100Y0068937D02*
X0018300Y0068937D01*
X0018034Y0070536D02*
X0029100Y0070536D01*
X0029100Y0072134D02*
X0017244Y0072134D01*
X0018586Y0073733D02*
X0029100Y0073733D01*
X0029100Y0075332D02*
X0020184Y0075332D01*
X0021783Y0076930D02*
X0029100Y0076930D01*
X0029100Y0078529D02*
X0023381Y0078529D01*
X0024900Y0080127D02*
X0029100Y0080127D01*
X0028500Y0081726D02*
X0024900Y0081726D01*
X0024900Y0083324D02*
X0027600Y0083324D01*
X0027600Y0084923D02*
X0024900Y0084923D01*
X0024900Y0086521D02*
X0028347Y0086521D01*
X0009546Y0083324D02*
X0006600Y0083324D01*
X0006600Y0081726D02*
X0008059Y0081726D01*
X0007397Y0080127D02*
X0006600Y0080127D01*
X0006600Y0078529D02*
X0007300Y0078529D01*
X0007621Y0076930D02*
X0006600Y0076930D01*
X0006600Y0075332D02*
X0008490Y0075332D01*
X0010337Y0073733D02*
X0006600Y0073733D01*
X0006600Y0072134D02*
X0008356Y0072134D01*
X0007566Y0070536D02*
X0006600Y0070536D01*
X0006600Y0068937D02*
X0007300Y0068937D01*
X0007452Y0067339D02*
X0006600Y0067339D01*
X0006600Y0065740D02*
X0008114Y0065740D01*
X0006600Y0064142D02*
X0009680Y0064142D01*
X0008765Y0062543D02*
X0006600Y0062543D01*
X0006600Y0060945D02*
X0007735Y0060945D01*
X0007300Y0059346D02*
X0006600Y0059346D01*
X0006600Y0057748D02*
X0007300Y0057748D01*
X0007945Y0056149D02*
X0006600Y0056149D01*
X0006600Y0054551D02*
X0009271Y0054551D01*
X0009174Y0052952D02*
X0006600Y0052952D01*
X0006600Y0051354D02*
X0007905Y0051354D01*
X0007300Y0049755D02*
X0006600Y0049755D01*
X0006600Y0048157D02*
X0007300Y0048157D01*
X0007775Y0046558D02*
X0006600Y0046558D01*
X0006600Y0044960D02*
X0008862Y0044960D01*
X0009583Y0043361D02*
X0006600Y0043361D01*
X0006600Y0041763D02*
X0008074Y0041763D01*
X0007412Y0040164D02*
X0006600Y0040164D01*
X0006600Y0038566D02*
X0007300Y0038566D01*
X0007606Y0036967D02*
X0006600Y0036967D01*
X0006600Y0035369D02*
X0008453Y0035369D01*
X0006600Y0033770D02*
X0010427Y0033770D01*
X0008394Y0032172D02*
X0006600Y0032172D01*
X0006600Y0030573D02*
X0007581Y0030573D01*
X0007300Y0028975D02*
X0006600Y0028975D01*
X0006600Y0027376D02*
X0007437Y0027376D01*
X0008099Y0025778D02*
X0006600Y0025778D01*
X0006600Y0024179D02*
X0009643Y0024179D01*
X0008802Y0022581D02*
X0006600Y0022581D01*
X0006600Y0020982D02*
X0007751Y0020982D01*
X0007300Y0019384D02*
X0006600Y0019384D01*
X0006600Y0017785D02*
X0007300Y0017785D01*
X0007929Y0016187D02*
X0006600Y0016187D01*
X0006600Y0014588D02*
X0009234Y0014588D01*
X0009211Y0012990D02*
X0006600Y0012990D01*
X0006600Y0011391D02*
X0007920Y0011391D01*
X0007300Y0009793D02*
X0006600Y0009793D01*
X0006600Y0008194D02*
X0007300Y0008194D01*
X0028100Y0036967D02*
X0029007Y0036967D01*
X0028100Y0038566D02*
X0030606Y0038566D01*
X0032204Y0040164D02*
X0028100Y0040164D01*
X0028100Y0041763D02*
X0033803Y0041763D01*
X0035402Y0043361D02*
X0028214Y0043361D01*
X0029812Y0044960D02*
X0037000Y0044960D01*
X0037200Y0046558D02*
X0031411Y0046558D01*
X0033010Y0048157D02*
X0038783Y0048157D01*
X0042700Y0049755D02*
X0034608Y0049755D01*
X0027681Y0060945D02*
X0017865Y0060945D01*
X0016835Y0062543D02*
X0027600Y0062543D01*
X0027600Y0064142D02*
X0015920Y0064142D01*
X0008899Y0084923D02*
X0006600Y0084923D01*
X0006600Y0086521D02*
X0007791Y0086521D01*
X0007300Y0088120D02*
X0006600Y0088120D01*
X0006600Y0089718D02*
X0007300Y0089718D01*
X0007889Y0091317D02*
X0006600Y0091317D01*
X0006600Y0092915D02*
X0009137Y0092915D01*
X0009308Y0094514D02*
X0006600Y0094514D01*
X0006600Y0096112D02*
X0007960Y0096112D01*
X0007300Y0097711D02*
X0006600Y0097711D01*
X0006600Y0099309D02*
X0007300Y0099309D01*
X0007720Y0100908D02*
X0006600Y0100908D01*
X0006600Y0102506D02*
X0008728Y0102506D01*
X0009763Y0104105D02*
X0006600Y0104105D01*
X0006600Y0105703D02*
X0008130Y0105703D01*
X0007467Y0107302D02*
X0006600Y0107302D01*
X0006600Y0108900D02*
X0007300Y0108900D01*
X0007551Y0110499D02*
X0006600Y0110499D01*
X0006600Y0112097D02*
X0008319Y0112097D01*
X0049494Y0088120D02*
X0051521Y0088120D01*
X0069800Y0073000D02*
X0069800Y0067400D01*
X0088000Y0041763D02*
X0100985Y0041763D01*
X0099800Y0040164D02*
X0099400Y0040164D01*
X0099400Y0038566D02*
X0099800Y0038566D01*
X0099400Y0036967D02*
X0091910Y0036967D01*
X0092094Y0038566D02*
X0090311Y0038566D01*
X0088713Y0040164D02*
X0093076Y0040164D01*
X0099400Y0035369D02*
X0099800Y0035369D01*
X0099800Y0033770D02*
X0099400Y0033770D01*
X0099400Y0032172D02*
X0099800Y0032172D01*
X0098304Y0030573D02*
X0112174Y0030573D01*
X0113800Y0021800D02*
X0153800Y0021800D01*
X0162600Y0030600D01*
X0162800Y0031300D01*
X0154810Y0019384D02*
X0154760Y0019384D01*
X0074200Y0032172D02*
X0073800Y0032172D01*
X0073800Y0033770D02*
X0074200Y0033770D01*
X0074200Y0035369D02*
X0073800Y0035369D01*
X0070169Y0032172D02*
X0055651Y0032172D01*
X0047319Y0024179D02*
X0044281Y0024179D01*
X0045651Y0022581D02*
X0045949Y0022581D01*
X0045949Y0020982D02*
X0045651Y0020982D01*
X0045651Y0019384D02*
X0045949Y0019384D01*
X0046954Y0017785D02*
X0044646Y0017785D01*
X0065023Y0033770D02*
X0067342Y0033770D01*
D20*
X0063400Y0035400D02*
X0065800Y0037800D01*
X0065800Y0038600D01*
X0072200Y0045000D01*
X0101000Y0045000D01*
X0117800Y0028200D01*
X0138600Y0028200D01*
X0138600Y0033800D02*
X0130600Y0033800D01*
X0125000Y0037800D02*
X0159400Y0037800D01*
X0162600Y0041000D01*
X0162800Y0041300D01*
X0162600Y0061000D02*
X0162800Y0061300D01*
X0162600Y0061000D02*
X0141800Y0040200D01*
X0133800Y0040200D01*
X0121000Y0053000D01*
X0129000Y0050600D02*
X0129800Y0049800D01*
X0129000Y0050600D02*
X0129000Y0071400D01*
X0112200Y0080200D02*
X0147400Y0115400D01*
X0147400Y0140200D01*
X0143400Y0130600D02*
X0137000Y0130600D01*
X0130600Y0124200D01*
X0130600Y0113800D01*
X0117800Y0101000D01*
X0117800Y0090600D01*
X0110600Y0083400D01*
X0101000Y0083400D01*
X0100200Y0084200D01*
X0093800Y0084200D01*
X0085800Y0076200D01*
X0085800Y0061800D01*
X0089800Y0057800D01*
X0089800Y0054600D01*
X0094600Y0049800D01*
X0099400Y0049800D01*
X0115400Y0033800D01*
X0117800Y0033800D01*
X0125000Y0037800D02*
X0121800Y0041000D01*
X0121800Y0042600D01*
X0101000Y0063400D01*
X0089800Y0063400D01*
X0081800Y0059400D02*
X0081800Y0090600D01*
X0084200Y0094600D02*
X0055400Y0123400D01*
X0037000Y0123400D01*
X0012200Y0148200D01*
X0012800Y0148800D01*
X0012800Y0138800D02*
X0030600Y0121000D01*
X0039400Y0121000D01*
X0073800Y0086600D01*
X0073800Y0067400D01*
X0063400Y0057000D01*
X0063400Y0050600D01*
X0058600Y0045800D01*
X0056200Y0045800D01*
X0051400Y0041000D01*
X0051400Y0037800D01*
X0053800Y0035400D01*
X0063400Y0035400D01*
X0061000Y0039400D02*
X0073800Y0052200D01*
X0073800Y0054600D01*
X0074000Y0054700D01*
X0074600Y0054600D01*
X0085800Y0054600D01*
X0076200Y0066600D02*
X0065800Y0056200D01*
X0065800Y0049800D01*
X0055400Y0039400D01*
X0045000Y0041800D02*
X0036200Y0033000D01*
X0036200Y0018600D01*
X0038600Y0016200D01*
X0038600Y0015400D01*
X0032200Y0009000D01*
X0013000Y0009000D01*
X0012800Y0008800D01*
X0025800Y0015400D02*
X0025800Y0044200D01*
X0051400Y0069800D01*
X0061800Y0071400D02*
X0045000Y0054600D01*
X0045000Y0041800D01*
X0034600Y0058600D02*
X0013000Y0058600D01*
X0012800Y0058800D01*
X0012800Y0068800D02*
X0013000Y0069000D01*
X0013000Y0071400D01*
X0022600Y0081000D01*
X0022600Y0104200D01*
X0024200Y0108200D02*
X0013000Y0108200D01*
X0012800Y0108800D01*
X0024200Y0108200D02*
X0026600Y0105800D01*
X0026600Y0101800D01*
X0046600Y0081800D01*
X0046600Y0079400D01*
X0046600Y0090600D02*
X0046600Y0093000D01*
X0013000Y0126600D01*
X0013000Y0128200D01*
X0012800Y0128800D01*
X0027400Y0140200D02*
X0077800Y0140200D01*
X0113800Y0140200D01*
X0126600Y0127400D01*
X0126600Y0113000D01*
X0109800Y0096200D01*
X0109800Y0088200D01*
X0102600Y0087400D02*
X0085800Y0087400D01*
X0086600Y0094600D02*
X0084200Y0094600D01*
X0078600Y0094600D02*
X0071400Y0094600D01*
X0061800Y0104200D01*
X0073000Y0112200D02*
X0073000Y0116200D01*
X0083400Y0116200D01*
X0087400Y0123400D02*
X0074600Y0136200D01*
X0060200Y0136200D01*
X0056200Y0132200D01*
X0057800Y0128200D02*
X0045000Y0128200D01*
X0043400Y0129800D01*
X0040200Y0127400D02*
X0041800Y0125800D01*
X0073000Y0125800D01*
X0073000Y0126600D01*
X0073000Y0125800D02*
X0073000Y0116200D01*
X0087400Y0123400D02*
X0103400Y0123400D01*
X0099400Y0113800D02*
X0097000Y0113800D01*
X0099400Y0113800D02*
X0108200Y0105000D01*
X0111400Y0105000D01*
X0121800Y0115400D01*
X0122300Y0115800D01*
X0134600Y0109000D02*
X0122600Y0097000D01*
X0122300Y0096800D01*
X0134600Y0109000D02*
X0134600Y0122600D01*
X0151400Y0106600D02*
X0157000Y0112200D01*
X0157000Y0125000D01*
X0162600Y0130600D01*
X0162800Y0131300D01*
X0157000Y0146600D02*
X0157000Y0153000D01*
X0161000Y0157000D01*
X0165000Y0157000D01*
X0168200Y0153800D01*
X0168200Y0106600D01*
X0163400Y0101800D01*
X0162800Y0101300D01*
X0156200Y0104200D02*
X0162600Y0110600D01*
X0162800Y0111300D01*
X0156200Y0104200D02*
X0156200Y0066600D01*
X0151400Y0064200D02*
X0151400Y0106600D01*
X0112200Y0080200D02*
X0095400Y0080200D01*
X0107400Y0074600D02*
X0107400Y0061000D01*
X0125800Y0042600D01*
X0098600Y0016200D02*
X0157000Y0016200D01*
X0076200Y0066600D02*
X0076200Y0089800D01*
X0061800Y0085800D02*
X0061800Y0071400D01*
X0061800Y0085800D02*
X0058600Y0089000D01*
X0058600Y0091400D01*
X0031400Y0084200D02*
X0031400Y0062600D01*
X0038600Y0016200D02*
X0039400Y0015400D01*
X0046600Y0015400D01*
X0050600Y0011400D01*
X0050800Y0010800D01*
X0105800Y0099400D02*
X0073000Y0132200D01*
X0061800Y0132200D01*
X0057800Y0128200D01*
X0040200Y0127400D02*
X0038600Y0127400D01*
X0105800Y0099400D02*
X0107400Y0099400D01*
M02*
