%
M48
M72
T01C0.02400
T02C0.03200
T03C0.03740
T04C0.04000
%
T01
X25800Y15400
X30600Y13000
X55400Y39400
X61000Y39400
X57000Y49800
X50600Y54600
X41000Y45000
X37000Y49800
X34600Y58600
X31400Y62600
X46600Y79400
X51400Y69800
X57800Y73800
X57800Y80200
X58600Y91400
X46600Y90600
X31400Y84200
X22600Y104200
X23400Y122600
X38600Y127400
X43400Y129800
X56200Y132200
X73000Y132200
X73000Y126600
X83400Y116200
X73000Y112200
X61800Y104200
X76200Y89800
X78600Y94600
X81800Y90600
X85800Y87400
X86600Y94600
X95400Y80200
X102600Y87400
X109800Y88200
X107400Y99400
X109800Y109000
X97000Y113800
X103400Y123400
X117000Y131400
X125000Y142600
X125800Y157800
X147400Y140200
X143400Y130600
X134600Y122600
X157000Y146600
X135400Y88200
X129000Y71400
X145800Y64200
X151400Y64200
X156200Y66600
X135400Y44200
X129800Y49800
X125800Y42600
X130600Y33800
X138600Y33800
X138600Y28200
X157000Y16200
X121000Y53000
X117800Y33800
X113800Y26600
X105000Y25800
X98600Y16200
X84200Y41000
X85800Y54600
X81800Y59400
X89800Y63400
X107400Y74600
X69800Y73000
X77800Y140200
X62600Y151400
X49800Y157800
X27400Y140200
X23400Y143400
T02
X122300Y115800
X122300Y96800
T03
X50800Y30800
X50800Y20800
X50800Y10800
X40800Y10800
X40800Y20800
X40800Y30800
T04
X12800Y8800
X12800Y18800
X12800Y28800
X12800Y38800
X12800Y48800
X12800Y58800
X12800Y68800
X12800Y78800
X12800Y88800
X12800Y98800
X12800Y108800
X12800Y118800
X12800Y128800
X12800Y138800
X12800Y148800
X52300Y165300
X62300Y165300
X72300Y165300
X82300Y165300
X92300Y165300
X102300Y165300
X112300Y165300
X122300Y165300
X162800Y151300
X162800Y141300
X162800Y131300
X162800Y121300
X162800Y111300
X162800Y101300
X162800Y91300
X162800Y81300
X162800Y71300
X162800Y61300
X162800Y51300
X162800Y41300
X162800Y31300
X162800Y21300
X162800Y11300
X99600Y36900
X99600Y54700
X74000Y54700
X74000Y36900
M30
